<mxfile host="app.diagrams.net" modified="2022-10-11T04:55:35.898Z" agent="5.0 (Windows NT 10.0; Win64; x64) AppleWebKit/537.36 (KHTML, like Gecko) Chrome/106.0.0.0 Safari/537.36 Edg/106.0.1370.37" etag="gkloBFhdp9kma5PO1p7R" version="20.4.0" type="github">
  <diagram id="1EfTe6vMNu9yi9bhlWQg" name="Page-1">
    <mxGraphModel dx="540" dy="704" grid="1" gridSize="10" guides="1" tooltips="1" connect="1" arrows="1" fold="1" page="1" pageScale="1" pageWidth="850" pageHeight="1100" math="0" shadow="0">
      <root>
        <mxCell id="0" />
        <mxCell id="1" parent="0" />
        <mxCell id="rq-qiGX2FJayqIBKI3bo-3" value="" style="endArrow=classic;html=1;rounded=0;" edge="1" parent="1">
          <mxGeometry width="50" height="50" relative="1" as="geometry">
            <mxPoint x="40" y="400" as="sourcePoint" />
            <mxPoint x="470" y="400" as="targetPoint" />
          </mxGeometry>
        </mxCell>
        <mxCell id="rq-qiGX2FJayqIBKI3bo-4" value="" style="endArrow=classic;html=1;rounded=0;" edge="1" parent="1">
          <mxGeometry width="50" height="50" relative="1" as="geometry">
            <mxPoint x="40" y="400" as="sourcePoint" />
            <mxPoint x="40" y="100" as="targetPoint" />
          </mxGeometry>
        </mxCell>
        <mxCell id="rq-qiGX2FJayqIBKI3bo-5" value="1&amp;nbsp; &amp;nbsp; &amp;nbsp; &amp;nbsp; &amp;nbsp;2&amp;nbsp; &amp;nbsp; &amp;nbsp; &amp;nbsp; &amp;nbsp; 3&amp;nbsp; &amp;nbsp; &amp;nbsp; &amp;nbsp; &amp;nbsp; 4&amp;nbsp; &amp;nbsp; &amp;nbsp; &amp;nbsp; &amp;nbsp; 5&amp;nbsp; &amp;nbsp; &amp;nbsp; &amp;nbsp; &amp;nbsp; 6&amp;nbsp; &amp;nbsp; &amp;nbsp; &amp;nbsp; &amp;nbsp; 7&amp;nbsp; &amp;nbsp; &amp;nbsp; &amp;nbsp; &amp;nbsp; 8" style="text;html=1;strokeColor=none;fillColor=none;align=left;verticalAlign=middle;whiteSpace=wrap;rounded=0;" vertex="1" parent="1">
          <mxGeometry x="80" y="400" width="370" height="30" as="geometry" />
        </mxCell>
        <mxCell id="rq-qiGX2FJayqIBKI3bo-7" value="1" style="text;html=1;strokeColor=none;fillColor=none;align=center;verticalAlign=middle;whiteSpace=wrap;rounded=0;fontSize=13;" vertex="1" parent="1">
          <mxGeometry y="350" width="60" height="30" as="geometry" />
        </mxCell>
        <mxCell id="rq-qiGX2FJayqIBKI3bo-8" value="2&lt;span style=&quot;color: rgba(0, 0, 0, 0); font-family: monospace; font-size: 0px; text-align: start;&quot;&gt;%3CmxGraphModel%3E%3Croot%3E%3CmxCell%20id%3D%220%22%2F%3E%3CmxCell%20id%3D%221%22%20parent%3D%220%22%2F%3E%3CmxCell%20id%3D%222%22%20value%3D%221%22%20style%3D%22text%3Bhtml%3D1%3BstrokeColor%3Dnone%3BfillColor%3Dnone%3Balign%3Dcenter%3BverticalAlign%3Dmiddle%3BwhiteSpace%3Dwrap%3Brounded%3D0%3BfontSize%3D13%3B%22%20vertex%3D%221%22%20parent%3D%221%22%3E%3CmxGeometry%20y%3D%22350%22%20width%3D%2260%22%20height%3D%2230%22%20as%3D%22geometry%22%2F%3E%3C%2FmxCell%3E%3C%2Froot%3E%3C%2FmxGraphModel%3E&lt;/span&gt;&lt;span style=&quot;color: rgba(0, 0, 0, 0); font-family: monospace; font-size: 0px; text-align: start;&quot;&gt;%3CmxGraphModel%3E%3Croot%3E%3CmxCell%20id%3D%220%22%2F%3E%3CmxCell%20id%3D%221%22%20parent%3D%220%22%2F%3E%3CmxCell%20id%3D%222%22%20value%3D%221%22%20style%3D%22text%3Bhtml%3D1%3BstrokeColor%3Dnone%3BfillColor%3Dnone%3Balign%3Dcenter%3BverticalAlign%3Dmiddle%3BwhiteSpace%3Dwrap%3Brounded%3D0%3BfontSize%3D13%3B%22%20vertex%3D%221%22%20parent%3D%221%22%3E%3CmxGeometry%20y%3D%22350%22%20width%3D%2260%22%20height%3D%2230%22%20as%3D%22geometry%22%2F%3E%3C%2FmxCell%3E%3C%2Froot%3E%3C%2FmxGraphModel%3E&lt;/span&gt;" style="text;html=1;strokeColor=none;fillColor=none;align=center;verticalAlign=middle;whiteSpace=wrap;rounded=0;fontSize=13;" vertex="1" parent="1">
          <mxGeometry y="310" width="60" height="30" as="geometry" />
        </mxCell>
        <mxCell id="rq-qiGX2FJayqIBKI3bo-9" value="3" style="text;html=1;strokeColor=none;fillColor=none;align=center;verticalAlign=middle;whiteSpace=wrap;rounded=0;fontSize=13;" vertex="1" parent="1">
          <mxGeometry y="270" width="60" height="30" as="geometry" />
        </mxCell>
        <mxCell id="rq-qiGX2FJayqIBKI3bo-10" value="4" style="text;html=1;strokeColor=none;fillColor=none;align=center;verticalAlign=middle;whiteSpace=wrap;rounded=0;fontSize=13;" vertex="1" parent="1">
          <mxGeometry y="230" width="60" height="30" as="geometry" />
        </mxCell>
        <mxCell id="rq-qiGX2FJayqIBKI3bo-11" value="5" style="text;html=1;strokeColor=none;fillColor=none;align=center;verticalAlign=middle;whiteSpace=wrap;rounded=0;fontSize=13;" vertex="1" parent="1">
          <mxGeometry y="190" width="60" height="30" as="geometry" />
        </mxCell>
        <mxCell id="rq-qiGX2FJayqIBKI3bo-13" value="6" style="text;html=1;strokeColor=none;fillColor=none;align=center;verticalAlign=middle;whiteSpace=wrap;rounded=0;fontSize=13;" vertex="1" parent="1">
          <mxGeometry y="150" width="60" height="30" as="geometry" />
        </mxCell>
        <mxCell id="rq-qiGX2FJayqIBKI3bo-68" style="edgeStyle=orthogonalEdgeStyle;curved=1;rounded=0;orthogonalLoop=1;jettySize=auto;html=1;entryX=0.5;entryY=1;entryDx=0;entryDy=0;fontSize=13;fillColor=#dae8fc;strokeColor=#6c8ebf;" edge="1" parent="1" source="rq-qiGX2FJayqIBKI3bo-14" target="rq-qiGX2FJayqIBKI3bo-18">
          <mxGeometry relative="1" as="geometry" />
        </mxCell>
        <mxCell id="rq-qiGX2FJayqIBKI3bo-14" value="" style="ellipse;whiteSpace=wrap;html=1;aspect=fixed;fontSize=13;" vertex="1" parent="1">
          <mxGeometry x="75" y="355" width="10" height="10" as="geometry" />
        </mxCell>
        <mxCell id="rq-qiGX2FJayqIBKI3bo-70" style="edgeStyle=orthogonalEdgeStyle;curved=1;rounded=0;orthogonalLoop=1;jettySize=auto;html=1;entryX=0.5;entryY=1;entryDx=0;entryDy=0;fontSize=13;fillColor=#dae8fc;strokeColor=#6c8ebf;" edge="1" parent="1" source="rq-qiGX2FJayqIBKI3bo-15" target="rq-qiGX2FJayqIBKI3bo-19">
          <mxGeometry relative="1" as="geometry" />
        </mxCell>
        <mxCell id="rq-qiGX2FJayqIBKI3bo-15" value="" style="ellipse;whiteSpace=wrap;html=1;aspect=fixed;fontSize=13;" vertex="1" parent="1">
          <mxGeometry x="115" y="355" width="10" height="10" as="geometry" />
        </mxCell>
        <mxCell id="rq-qiGX2FJayqIBKI3bo-73" style="edgeStyle=orthogonalEdgeStyle;curved=1;rounded=0;orthogonalLoop=1;jettySize=auto;html=1;entryX=0.5;entryY=1;entryDx=0;entryDy=0;fontSize=13;fillColor=#dae8fc;strokeColor=#6c8ebf;" edge="1" parent="1" source="rq-qiGX2FJayqIBKI3bo-16" target="rq-qiGX2FJayqIBKI3bo-20">
          <mxGeometry relative="1" as="geometry" />
        </mxCell>
        <mxCell id="rq-qiGX2FJayqIBKI3bo-16" value="" style="ellipse;whiteSpace=wrap;html=1;aspect=fixed;fontSize=13;" vertex="1" parent="1">
          <mxGeometry x="156" y="355" width="10" height="10" as="geometry" />
        </mxCell>
        <mxCell id="rq-qiGX2FJayqIBKI3bo-72" style="edgeStyle=orthogonalEdgeStyle;curved=1;rounded=0;orthogonalLoop=1;jettySize=auto;html=1;entryX=0.5;entryY=1;entryDx=0;entryDy=0;fontSize=13;fillColor=#dae8fc;strokeColor=#6c8ebf;" edge="1" parent="1" source="rq-qiGX2FJayqIBKI3bo-18" target="rq-qiGX2FJayqIBKI3bo-22">
          <mxGeometry relative="1" as="geometry" />
        </mxCell>
        <mxCell id="rq-qiGX2FJayqIBKI3bo-18" value="" style="ellipse;whiteSpace=wrap;html=1;aspect=fixed;fontSize=13;" vertex="1" parent="1">
          <mxGeometry x="75" y="315" width="10" height="10" as="geometry" />
        </mxCell>
        <mxCell id="rq-qiGX2FJayqIBKI3bo-71" style="edgeStyle=orthogonalEdgeStyle;curved=1;rounded=0;orthogonalLoop=1;jettySize=auto;html=1;entryX=0.5;entryY=1;entryDx=0;entryDy=0;fontSize=13;fillColor=#dae8fc;strokeColor=#6c8ebf;" edge="1" parent="1" source="rq-qiGX2FJayqIBKI3bo-19" target="rq-qiGX2FJayqIBKI3bo-23">
          <mxGeometry relative="1" as="geometry" />
        </mxCell>
        <mxCell id="rq-qiGX2FJayqIBKI3bo-19" value="" style="ellipse;whiteSpace=wrap;html=1;aspect=fixed;fontSize=13;" vertex="1" parent="1">
          <mxGeometry x="115" y="315" width="10" height="10" as="geometry" />
        </mxCell>
        <mxCell id="rq-qiGX2FJayqIBKI3bo-74" style="edgeStyle=orthogonalEdgeStyle;curved=1;rounded=0;orthogonalLoop=1;jettySize=auto;html=1;entryX=0.5;entryY=1;entryDx=0;entryDy=0;fontSize=13;fillColor=#dae8fc;strokeColor=#6c8ebf;" edge="1" parent="1" source="rq-qiGX2FJayqIBKI3bo-20" target="rq-qiGX2FJayqIBKI3bo-24">
          <mxGeometry relative="1" as="geometry" />
        </mxCell>
        <mxCell id="rq-qiGX2FJayqIBKI3bo-20" value="" style="ellipse;whiteSpace=wrap;html=1;aspect=fixed;fontSize=13;" vertex="1" parent="1">
          <mxGeometry x="156" y="315" width="10" height="10" as="geometry" />
        </mxCell>
        <mxCell id="rq-qiGX2FJayqIBKI3bo-77" style="edgeStyle=orthogonalEdgeStyle;curved=1;rounded=0;orthogonalLoop=1;jettySize=auto;html=1;entryX=0.5;entryY=1;entryDx=0;entryDy=0;fontSize=13;fillColor=#dae8fc;strokeColor=#6c8ebf;" edge="1" parent="1" source="rq-qiGX2FJayqIBKI3bo-22" target="rq-qiGX2FJayqIBKI3bo-26">
          <mxGeometry relative="1" as="geometry" />
        </mxCell>
        <mxCell id="rq-qiGX2FJayqIBKI3bo-22" value="" style="ellipse;whiteSpace=wrap;html=1;aspect=fixed;fontSize=13;" vertex="1" parent="1">
          <mxGeometry x="75" y="275" width="10" height="10" as="geometry" />
        </mxCell>
        <mxCell id="rq-qiGX2FJayqIBKI3bo-76" style="edgeStyle=orthogonalEdgeStyle;curved=1;rounded=0;orthogonalLoop=1;jettySize=auto;html=1;entryX=0.5;entryY=1;entryDx=0;entryDy=0;fontSize=13;fillColor=#dae8fc;strokeColor=#6c8ebf;" edge="1" parent="1" source="rq-qiGX2FJayqIBKI3bo-23" target="rq-qiGX2FJayqIBKI3bo-27">
          <mxGeometry relative="1" as="geometry" />
        </mxCell>
        <mxCell id="rq-qiGX2FJayqIBKI3bo-23" value="" style="ellipse;whiteSpace=wrap;html=1;aspect=fixed;fontSize=13;" vertex="1" parent="1">
          <mxGeometry x="115" y="275" width="10" height="10" as="geometry" />
        </mxCell>
        <mxCell id="rq-qiGX2FJayqIBKI3bo-75" style="edgeStyle=orthogonalEdgeStyle;curved=1;rounded=0;orthogonalLoop=1;jettySize=auto;html=1;entryX=0.5;entryY=1;entryDx=0;entryDy=0;fontSize=13;fillColor=#dae8fc;strokeColor=#6c8ebf;" edge="1" parent="1" source="rq-qiGX2FJayqIBKI3bo-24" target="rq-qiGX2FJayqIBKI3bo-28">
          <mxGeometry relative="1" as="geometry" />
        </mxCell>
        <mxCell id="rq-qiGX2FJayqIBKI3bo-24" value="" style="ellipse;whiteSpace=wrap;html=1;aspect=fixed;fontSize=13;" vertex="1" parent="1">
          <mxGeometry x="156" y="275" width="10" height="10" as="geometry" />
        </mxCell>
        <mxCell id="rq-qiGX2FJayqIBKI3bo-78" style="edgeStyle=orthogonalEdgeStyle;curved=1;rounded=0;orthogonalLoop=1;jettySize=auto;html=1;entryX=0.5;entryY=1;entryDx=0;entryDy=0;fontSize=13;fillColor=#dae8fc;strokeColor=#6c8ebf;" edge="1" parent="1" source="rq-qiGX2FJayqIBKI3bo-26" target="rq-qiGX2FJayqIBKI3bo-39">
          <mxGeometry relative="1" as="geometry" />
        </mxCell>
        <mxCell id="rq-qiGX2FJayqIBKI3bo-26" value="" style="ellipse;whiteSpace=wrap;html=1;aspect=fixed;fontSize=13;" vertex="1" parent="1">
          <mxGeometry x="75" y="235" width="10" height="10" as="geometry" />
        </mxCell>
        <mxCell id="rq-qiGX2FJayqIBKI3bo-80" style="edgeStyle=orthogonalEdgeStyle;curved=1;rounded=0;orthogonalLoop=1;jettySize=auto;html=1;entryX=0.5;entryY=1;entryDx=0;entryDy=0;fontSize=13;fillColor=#dae8fc;strokeColor=#6c8ebf;" edge="1" parent="1" source="rq-qiGX2FJayqIBKI3bo-27" target="rq-qiGX2FJayqIBKI3bo-40">
          <mxGeometry relative="1" as="geometry" />
        </mxCell>
        <mxCell id="rq-qiGX2FJayqIBKI3bo-27" value="" style="ellipse;whiteSpace=wrap;html=1;aspect=fixed;fontSize=13;" vertex="1" parent="1">
          <mxGeometry x="115" y="235" width="10" height="10" as="geometry" />
        </mxCell>
        <mxCell id="rq-qiGX2FJayqIBKI3bo-81" style="edgeStyle=orthogonalEdgeStyle;curved=1;rounded=0;orthogonalLoop=1;jettySize=auto;html=1;entryX=0.5;entryY=1;entryDx=0;entryDy=0;fontSize=13;fillColor=#dae8fc;strokeColor=#6c8ebf;" edge="1" parent="1" source="rq-qiGX2FJayqIBKI3bo-28" target="rq-qiGX2FJayqIBKI3bo-41">
          <mxGeometry relative="1" as="geometry" />
        </mxCell>
        <mxCell id="rq-qiGX2FJayqIBKI3bo-28" value="" style="ellipse;whiteSpace=wrap;html=1;aspect=fixed;fontSize=13;" vertex="1" parent="1">
          <mxGeometry x="156" y="235" width="10" height="10" as="geometry" />
        </mxCell>
        <mxCell id="rq-qiGX2FJayqIBKI3bo-39" value="" style="ellipse;whiteSpace=wrap;html=1;aspect=fixed;fontSize=13;" vertex="1" parent="1">
          <mxGeometry x="75" y="195" width="10" height="10" as="geometry" />
        </mxCell>
        <mxCell id="rq-qiGX2FJayqIBKI3bo-40" value="" style="ellipse;whiteSpace=wrap;html=1;aspect=fixed;fontSize=13;" vertex="1" parent="1">
          <mxGeometry x="115" y="195" width="10" height="10" as="geometry" />
        </mxCell>
        <mxCell id="rq-qiGX2FJayqIBKI3bo-41" value="" style="ellipse;whiteSpace=wrap;html=1;aspect=fixed;fontSize=13;" vertex="1" parent="1">
          <mxGeometry x="156" y="195" width="10" height="10" as="geometry" />
        </mxCell>
        <mxCell id="rq-qiGX2FJayqIBKI3bo-64" value="" style="curved=1;endArrow=classic;html=1;rounded=0;fontSize=13;entryX=0;entryY=0;entryDx=0;entryDy=0;fillColor=#f8cecc;strokeColor=#b85450;" edge="1" parent="1" source="rq-qiGX2FJayqIBKI3bo-22" target="rq-qiGX2FJayqIBKI3bo-16">
          <mxGeometry width="50" height="50" relative="1" as="geometry">
            <mxPoint x="85" y="330" as="sourcePoint" />
            <mxPoint x="155.71067811865476" y="280" as="targetPoint" />
            <Array as="points">
              <mxPoint x="140" y="310" />
            </Array>
          </mxGeometry>
        </mxCell>
        <mxCell id="rq-qiGX2FJayqIBKI3bo-82" style="edgeStyle=orthogonalEdgeStyle;curved=1;rounded=0;orthogonalLoop=1;jettySize=auto;html=1;entryX=0.5;entryY=1;entryDx=0;entryDy=0;fontSize=13;fillColor=#dae8fc;strokeColor=#6c8ebf;" edge="1" parent="1" source="rq-qiGX2FJayqIBKI3bo-83" target="rq-qiGX2FJayqIBKI3bo-89">
          <mxGeometry relative="1" as="geometry" />
        </mxCell>
        <mxCell id="rq-qiGX2FJayqIBKI3bo-83" value="" style="ellipse;whiteSpace=wrap;html=1;aspect=fixed;fontSize=13;" vertex="1" parent="1">
          <mxGeometry x="194" y="355" width="10" height="10" as="geometry" />
        </mxCell>
        <mxCell id="rq-qiGX2FJayqIBKI3bo-84" style="edgeStyle=orthogonalEdgeStyle;curved=1;rounded=0;orthogonalLoop=1;jettySize=auto;html=1;entryX=0.5;entryY=1;entryDx=0;entryDy=0;fontSize=13;fillColor=#dae8fc;strokeColor=#6c8ebf;" edge="1" parent="1" source="rq-qiGX2FJayqIBKI3bo-85" target="rq-qiGX2FJayqIBKI3bo-91">
          <mxGeometry relative="1" as="geometry" />
        </mxCell>
        <mxCell id="rq-qiGX2FJayqIBKI3bo-85" value="" style="ellipse;whiteSpace=wrap;html=1;aspect=fixed;fontSize=13;" vertex="1" parent="1">
          <mxGeometry x="234" y="355" width="10" height="10" as="geometry" />
        </mxCell>
        <mxCell id="rq-qiGX2FJayqIBKI3bo-86" style="edgeStyle=orthogonalEdgeStyle;curved=1;rounded=0;orthogonalLoop=1;jettySize=auto;html=1;entryX=0.5;entryY=1;entryDx=0;entryDy=0;fontSize=13;fillColor=#dae8fc;strokeColor=#6c8ebf;" edge="1" parent="1" source="rq-qiGX2FJayqIBKI3bo-87" target="rq-qiGX2FJayqIBKI3bo-93">
          <mxGeometry relative="1" as="geometry" />
        </mxCell>
        <mxCell id="rq-qiGX2FJayqIBKI3bo-87" value="" style="ellipse;whiteSpace=wrap;html=1;aspect=fixed;fontSize=13;" vertex="1" parent="1">
          <mxGeometry x="275" y="355" width="10" height="10" as="geometry" />
        </mxCell>
        <mxCell id="rq-qiGX2FJayqIBKI3bo-88" style="edgeStyle=orthogonalEdgeStyle;curved=1;rounded=0;orthogonalLoop=1;jettySize=auto;html=1;entryX=0.5;entryY=1;entryDx=0;entryDy=0;fontSize=13;fillColor=#dae8fc;strokeColor=#6c8ebf;" edge="1" parent="1" source="rq-qiGX2FJayqIBKI3bo-89" target="rq-qiGX2FJayqIBKI3bo-95">
          <mxGeometry relative="1" as="geometry" />
        </mxCell>
        <mxCell id="rq-qiGX2FJayqIBKI3bo-89" value="" style="ellipse;whiteSpace=wrap;html=1;aspect=fixed;fontSize=13;" vertex="1" parent="1">
          <mxGeometry x="194" y="315" width="10" height="10" as="geometry" />
        </mxCell>
        <mxCell id="rq-qiGX2FJayqIBKI3bo-90" style="edgeStyle=orthogonalEdgeStyle;curved=1;rounded=0;orthogonalLoop=1;jettySize=auto;html=1;entryX=0.5;entryY=1;entryDx=0;entryDy=0;fontSize=13;fillColor=#dae8fc;strokeColor=#6c8ebf;" edge="1" parent="1" source="rq-qiGX2FJayqIBKI3bo-91" target="rq-qiGX2FJayqIBKI3bo-97">
          <mxGeometry relative="1" as="geometry" />
        </mxCell>
        <mxCell id="rq-qiGX2FJayqIBKI3bo-91" value="" style="ellipse;whiteSpace=wrap;html=1;aspect=fixed;fontSize=13;" vertex="1" parent="1">
          <mxGeometry x="234" y="315" width="10" height="10" as="geometry" />
        </mxCell>
        <mxCell id="rq-qiGX2FJayqIBKI3bo-92" style="edgeStyle=orthogonalEdgeStyle;curved=1;rounded=0;orthogonalLoop=1;jettySize=auto;html=1;entryX=0.5;entryY=1;entryDx=0;entryDy=0;fontSize=13;fillColor=#dae8fc;strokeColor=#6c8ebf;" edge="1" parent="1" source="rq-qiGX2FJayqIBKI3bo-93" target="rq-qiGX2FJayqIBKI3bo-99">
          <mxGeometry relative="1" as="geometry" />
        </mxCell>
        <mxCell id="rq-qiGX2FJayqIBKI3bo-93" value="" style="ellipse;whiteSpace=wrap;html=1;aspect=fixed;fontSize=13;" vertex="1" parent="1">
          <mxGeometry x="275" y="315" width="10" height="10" as="geometry" />
        </mxCell>
        <mxCell id="rq-qiGX2FJayqIBKI3bo-94" style="edgeStyle=orthogonalEdgeStyle;curved=1;rounded=0;orthogonalLoop=1;jettySize=auto;html=1;entryX=0.5;entryY=1;entryDx=0;entryDy=0;fontSize=13;fillColor=#dae8fc;strokeColor=#6c8ebf;" edge="1" parent="1" source="rq-qiGX2FJayqIBKI3bo-95" target="rq-qiGX2FJayqIBKI3bo-101">
          <mxGeometry relative="1" as="geometry" />
        </mxCell>
        <mxCell id="rq-qiGX2FJayqIBKI3bo-95" value="" style="ellipse;whiteSpace=wrap;html=1;aspect=fixed;fontSize=13;" vertex="1" parent="1">
          <mxGeometry x="194" y="275" width="10" height="10" as="geometry" />
        </mxCell>
        <mxCell id="rq-qiGX2FJayqIBKI3bo-96" style="edgeStyle=orthogonalEdgeStyle;curved=1;rounded=0;orthogonalLoop=1;jettySize=auto;html=1;entryX=0.5;entryY=1;entryDx=0;entryDy=0;fontSize=13;fillColor=#dae8fc;strokeColor=#6c8ebf;" edge="1" parent="1" source="rq-qiGX2FJayqIBKI3bo-97" target="rq-qiGX2FJayqIBKI3bo-103">
          <mxGeometry relative="1" as="geometry" />
        </mxCell>
        <mxCell id="rq-qiGX2FJayqIBKI3bo-97" value="" style="ellipse;whiteSpace=wrap;html=1;aspect=fixed;fontSize=13;" vertex="1" parent="1">
          <mxGeometry x="234" y="275" width="10" height="10" as="geometry" />
        </mxCell>
        <mxCell id="rq-qiGX2FJayqIBKI3bo-98" style="edgeStyle=orthogonalEdgeStyle;curved=1;rounded=0;orthogonalLoop=1;jettySize=auto;html=1;entryX=0.5;entryY=1;entryDx=0;entryDy=0;fontSize=13;fillColor=#dae8fc;strokeColor=#6c8ebf;" edge="1" parent="1" source="rq-qiGX2FJayqIBKI3bo-99" target="rq-qiGX2FJayqIBKI3bo-105">
          <mxGeometry relative="1" as="geometry" />
        </mxCell>
        <mxCell id="rq-qiGX2FJayqIBKI3bo-99" value="" style="ellipse;whiteSpace=wrap;html=1;aspect=fixed;fontSize=13;" vertex="1" parent="1">
          <mxGeometry x="275" y="275" width="10" height="10" as="geometry" />
        </mxCell>
        <mxCell id="rq-qiGX2FJayqIBKI3bo-100" style="edgeStyle=orthogonalEdgeStyle;curved=1;rounded=0;orthogonalLoop=1;jettySize=auto;html=1;entryX=0.5;entryY=1;entryDx=0;entryDy=0;fontSize=13;fillColor=#dae8fc;strokeColor=#6c8ebf;" edge="1" parent="1" source="rq-qiGX2FJayqIBKI3bo-101" target="rq-qiGX2FJayqIBKI3bo-106">
          <mxGeometry relative="1" as="geometry" />
        </mxCell>
        <mxCell id="rq-qiGX2FJayqIBKI3bo-101" value="" style="ellipse;whiteSpace=wrap;html=1;aspect=fixed;fontSize=13;" vertex="1" parent="1">
          <mxGeometry x="194" y="235" width="10" height="10" as="geometry" />
        </mxCell>
        <mxCell id="rq-qiGX2FJayqIBKI3bo-102" style="edgeStyle=orthogonalEdgeStyle;curved=1;rounded=0;orthogonalLoop=1;jettySize=auto;html=1;entryX=0.5;entryY=1;entryDx=0;entryDy=0;fontSize=13;fillColor=#dae8fc;strokeColor=#6c8ebf;" edge="1" parent="1" source="rq-qiGX2FJayqIBKI3bo-103" target="rq-qiGX2FJayqIBKI3bo-107">
          <mxGeometry relative="1" as="geometry" />
        </mxCell>
        <mxCell id="rq-qiGX2FJayqIBKI3bo-103" value="" style="ellipse;whiteSpace=wrap;html=1;aspect=fixed;fontSize=13;" vertex="1" parent="1">
          <mxGeometry x="234" y="235" width="10" height="10" as="geometry" />
        </mxCell>
        <mxCell id="rq-qiGX2FJayqIBKI3bo-104" style="edgeStyle=orthogonalEdgeStyle;curved=1;rounded=0;orthogonalLoop=1;jettySize=auto;html=1;entryX=0.5;entryY=1;entryDx=0;entryDy=0;fontSize=13;fillColor=#dae8fc;strokeColor=#6c8ebf;" edge="1" parent="1" source="rq-qiGX2FJayqIBKI3bo-105" target="rq-qiGX2FJayqIBKI3bo-108">
          <mxGeometry relative="1" as="geometry" />
        </mxCell>
        <mxCell id="rq-qiGX2FJayqIBKI3bo-105" value="" style="ellipse;whiteSpace=wrap;html=1;aspect=fixed;fontSize=13;" vertex="1" parent="1">
          <mxGeometry x="275" y="235" width="10" height="10" as="geometry" />
        </mxCell>
        <mxCell id="rq-qiGX2FJayqIBKI3bo-106" value="" style="ellipse;whiteSpace=wrap;html=1;aspect=fixed;fontSize=13;" vertex="1" parent="1">
          <mxGeometry x="194" y="195" width="10" height="10" as="geometry" />
        </mxCell>
        <mxCell id="rq-qiGX2FJayqIBKI3bo-107" value="" style="ellipse;whiteSpace=wrap;html=1;aspect=fixed;fontSize=13;" vertex="1" parent="1">
          <mxGeometry x="234" y="195" width="10" height="10" as="geometry" />
        </mxCell>
        <mxCell id="rq-qiGX2FJayqIBKI3bo-108" value="" style="ellipse;whiteSpace=wrap;html=1;aspect=fixed;fontSize=13;" vertex="1" parent="1">
          <mxGeometry x="275" y="195" width="10" height="10" as="geometry" />
        </mxCell>
        <mxCell id="rq-qiGX2FJayqIBKI3bo-113" value="" style="curved=1;endArrow=classic;html=1;rounded=0;fontSize=13;entryX=0;entryY=0;entryDx=0;entryDy=0;fillColor=#f8cecc;strokeColor=#b85450;" edge="1" parent="1">
          <mxGeometry width="50" height="50" relative="1" as="geometry">
            <mxPoint x="84.99746462854645" y="241.1124787771279" as="sourcePoint" />
            <mxPoint x="158.17446609406736" y="315.00446609406737" as="targetPoint" />
            <Array as="points">
              <mxPoint x="140" y="270" />
            </Array>
          </mxGeometry>
        </mxCell>
        <mxCell id="rq-qiGX2FJayqIBKI3bo-114" value="" style="curved=1;endArrow=classic;html=1;rounded=0;fontSize=13;entryX=0;entryY=0;entryDx=0;entryDy=0;fillColor=#f8cecc;strokeColor=#b85450;" edge="1" parent="1">
          <mxGeometry width="50" height="50" relative="1" as="geometry">
            <mxPoint x="84.99746462854645" y="201.11247877712793" as="sourcePoint" />
            <mxPoint x="158.17446609406736" y="275.00446609406737" as="targetPoint" />
            <Array as="points">
              <mxPoint x="140" y="230" />
            </Array>
          </mxGeometry>
        </mxCell>
        <mxCell id="rq-qiGX2FJayqIBKI3bo-125" value="" style="curved=1;endArrow=classic;html=1;rounded=0;fontSize=13;entryX=0;entryY=0;entryDx=0;entryDy=0;fillColor=#f8cecc;strokeColor=#b85450;" edge="1" parent="1">
          <mxGeometry width="50" height="50" relative="1" as="geometry">
            <mxPoint x="124.1521359549933" y="283.44606797749674" as="sourcePoint" />
            <mxPoint x="197.14446609406735" y="357.6744660940673" as="targetPoint" />
            <Array as="points">
              <mxPoint x="179.68" y="311.21" />
            </Array>
          </mxGeometry>
        </mxCell>
        <mxCell id="rq-qiGX2FJayqIBKI3bo-126" value="" style="curved=1;endArrow=classic;html=1;rounded=0;fontSize=13;entryX=0;entryY=0;entryDx=0;entryDy=0;fillColor=#f8cecc;strokeColor=#b85450;" edge="1" parent="1">
          <mxGeometry width="50" height="50" relative="1" as="geometry">
            <mxPoint x="124.67746462854649" y="242.32247877712788" as="sourcePoint" />
            <mxPoint x="197.8544660940674" y="316.2144660940673" as="targetPoint" />
            <Array as="points">
              <mxPoint x="179.68" y="271.21" />
            </Array>
          </mxGeometry>
        </mxCell>
        <mxCell id="rq-qiGX2FJayqIBKI3bo-127" value="" style="curved=1;endArrow=classic;html=1;rounded=0;fontSize=13;entryX=0;entryY=0;entryDx=0;entryDy=0;fillColor=#f8cecc;strokeColor=#b85450;" edge="1" parent="1">
          <mxGeometry width="50" height="50" relative="1" as="geometry">
            <mxPoint x="124.67746462854649" y="202.3224787771281" as="sourcePoint" />
            <mxPoint x="197.8544660940674" y="276.2144660940673" as="targetPoint" />
            <Array as="points">
              <mxPoint x="179.68" y="231.21" />
            </Array>
          </mxGeometry>
        </mxCell>
        <mxCell id="rq-qiGX2FJayqIBKI3bo-128" value="" style="curved=1;endArrow=classic;html=1;rounded=0;fontSize=13;entryX=0;entryY=0;entryDx=0;entryDy=0;fillColor=#f8cecc;strokeColor=#b85450;" edge="1" parent="1">
          <mxGeometry width="50" height="50" relative="1" as="geometry">
            <mxPoint x="166.0021359549933" y="280.7760679774968" as="sourcePoint" />
            <mxPoint x="238.99446609406735" y="355.00446609406737" as="targetPoint" />
            <Array as="points">
              <mxPoint x="221.53" y="308.54" />
            </Array>
          </mxGeometry>
        </mxCell>
        <mxCell id="rq-qiGX2FJayqIBKI3bo-129" value="" style="curved=1;endArrow=classic;html=1;rounded=0;fontSize=13;entryX=0;entryY=0;entryDx=0;entryDy=0;fillColor=#f8cecc;strokeColor=#b85450;" edge="1" parent="1">
          <mxGeometry width="50" height="50" relative="1" as="geometry">
            <mxPoint x="166.52746462854648" y="239.65247877712787" as="sourcePoint" />
            <mxPoint x="239.70446609406739" y="313.54446609406733" as="targetPoint" />
            <Array as="points">
              <mxPoint x="221.53" y="268.54" />
            </Array>
          </mxGeometry>
        </mxCell>
        <mxCell id="rq-qiGX2FJayqIBKI3bo-130" value="" style="curved=1;endArrow=classic;html=1;rounded=0;fontSize=13;entryX=0;entryY=0;entryDx=0;entryDy=0;fillColor=#f8cecc;strokeColor=#b85450;" edge="1" parent="1">
          <mxGeometry width="50" height="50" relative="1" as="geometry">
            <mxPoint x="166.52746462854648" y="199.6524787771281" as="sourcePoint" />
            <mxPoint x="239.70446609406739" y="273.54446609406733" as="targetPoint" />
            <Array as="points">
              <mxPoint x="221.53" y="228.54" />
            </Array>
          </mxGeometry>
        </mxCell>
        <mxCell id="rq-qiGX2FJayqIBKI3bo-131" value="" style="curved=1;endArrow=classic;html=1;rounded=0;fontSize=13;entryX=0;entryY=0;entryDx=0;entryDy=0;fillColor=#f8cecc;strokeColor=#b85450;" edge="1" parent="1">
          <mxGeometry width="50" height="50" relative="1" as="geometry">
            <mxPoint x="204.0021359549933" y="283.44606797749674" as="sourcePoint" />
            <mxPoint x="276.9944660940673" y="357.6744660940673" as="targetPoint" />
            <Array as="points">
              <mxPoint x="259.53" y="311.21" />
            </Array>
          </mxGeometry>
        </mxCell>
        <mxCell id="rq-qiGX2FJayqIBKI3bo-132" value="" style="curved=1;endArrow=classic;html=1;rounded=0;fontSize=13;entryX=0;entryY=0;entryDx=0;entryDy=0;fillColor=#f8cecc;strokeColor=#b85450;" edge="1" parent="1">
          <mxGeometry width="50" height="50" relative="1" as="geometry">
            <mxPoint x="204.52746462854648" y="242.32247877712788" as="sourcePoint" />
            <mxPoint x="277.70446609406736" y="316.2144660940673" as="targetPoint" />
            <Array as="points">
              <mxPoint x="259.53" y="271.21" />
            </Array>
          </mxGeometry>
        </mxCell>
        <mxCell id="rq-qiGX2FJayqIBKI3bo-133" value="" style="curved=1;endArrow=classic;html=1;rounded=0;fontSize=13;entryX=0;entryY=0;entryDx=0;entryDy=0;fillColor=#f8cecc;strokeColor=#b85450;" edge="1" parent="1">
          <mxGeometry width="50" height="50" relative="1" as="geometry">
            <mxPoint x="204.52746462854648" y="202.3224787771281" as="sourcePoint" />
            <mxPoint x="277.70446609406736" y="276.2144660940673" as="targetPoint" />
            <Array as="points">
              <mxPoint x="259.53" y="231.21" />
            </Array>
          </mxGeometry>
        </mxCell>
        <mxCell id="rq-qiGX2FJayqIBKI3bo-134" style="edgeStyle=orthogonalEdgeStyle;curved=1;rounded=0;orthogonalLoop=1;jettySize=auto;html=1;entryX=0.5;entryY=1;entryDx=0;entryDy=0;fontSize=13;fillColor=#f8cecc;strokeColor=#b85450;strokeWidth=2;" edge="1" parent="1" source="rq-qiGX2FJayqIBKI3bo-135" target="rq-qiGX2FJayqIBKI3bo-141">
          <mxGeometry relative="1" as="geometry" />
        </mxCell>
        <mxCell id="rq-qiGX2FJayqIBKI3bo-135" value="" style="ellipse;whiteSpace=wrap;html=1;aspect=fixed;fontSize=13;fillColor=#000000;strokeWidth=2;" vertex="1" parent="1">
          <mxGeometry x="251" y="890" width="10" height="10" as="geometry" />
        </mxCell>
        <mxCell id="rq-qiGX2FJayqIBKI3bo-140" style="edgeStyle=orthogonalEdgeStyle;curved=1;rounded=0;orthogonalLoop=1;jettySize=auto;html=1;entryX=0.5;entryY=1;entryDx=0;entryDy=0;fontSize=13;fillColor=#f8cecc;strokeColor=#b85450;strokeWidth=2;" edge="1" parent="1" source="rq-qiGX2FJayqIBKI3bo-141" target="rq-qiGX2FJayqIBKI3bo-147">
          <mxGeometry relative="1" as="geometry" />
        </mxCell>
        <mxCell id="rq-qiGX2FJayqIBKI3bo-141" value="" style="ellipse;whiteSpace=wrap;html=1;aspect=fixed;fontSize=13;fillColor=#000000;strokeWidth=2;" vertex="1" parent="1">
          <mxGeometry x="251" y="810" width="10" height="10" as="geometry" />
        </mxCell>
        <mxCell id="rq-qiGX2FJayqIBKI3bo-146" style="edgeStyle=orthogonalEdgeStyle;curved=1;rounded=0;orthogonalLoop=1;jettySize=auto;html=1;entryX=0.5;entryY=1;entryDx=0;entryDy=0;fontSize=13;fillColor=#f8cecc;strokeColor=#b85450;strokeWidth=2;" edge="1" parent="1" source="rq-qiGX2FJayqIBKI3bo-147" target="rq-qiGX2FJayqIBKI3bo-153">
          <mxGeometry relative="1" as="geometry" />
        </mxCell>
        <mxCell id="rq-qiGX2FJayqIBKI3bo-147" value="" style="ellipse;whiteSpace=wrap;html=1;aspect=fixed;fontSize=13;fillColor=#000000;strokeWidth=2;" vertex="1" parent="1">
          <mxGeometry x="251" y="730" width="10" height="10" as="geometry" />
        </mxCell>
        <mxCell id="rq-qiGX2FJayqIBKI3bo-152" style="edgeStyle=orthogonalEdgeStyle;curved=1;rounded=0;orthogonalLoop=1;jettySize=auto;html=1;entryX=0.5;entryY=1;entryDx=0;entryDy=0;fontSize=13;fillColor=#f8cecc;strokeColor=#b85450;strokeWidth=2;" edge="1" parent="1" source="rq-qiGX2FJayqIBKI3bo-153" target="rq-qiGX2FJayqIBKI3bo-158">
          <mxGeometry relative="1" as="geometry" />
        </mxCell>
        <mxCell id="rq-qiGX2FJayqIBKI3bo-153" value="" style="ellipse;whiteSpace=wrap;html=1;aspect=fixed;fontSize=13;fillColor=#000000;strokeWidth=2;" vertex="1" parent="1">
          <mxGeometry x="251" y="650" width="10" height="10" as="geometry" />
        </mxCell>
        <mxCell id="rq-qiGX2FJayqIBKI3bo-158" value="" style="ellipse;whiteSpace=wrap;html=1;aspect=fixed;fontSize=13;fillColor=#000000;strokeWidth=2;" vertex="1" parent="1">
          <mxGeometry x="251" y="570" width="10" height="10" as="geometry" />
        </mxCell>
        <mxCell id="rq-qiGX2FJayqIBKI3bo-209" style="edgeStyle=orthogonalEdgeStyle;curved=1;rounded=0;orthogonalLoop=1;jettySize=auto;html=1;entryX=0.5;entryY=1;entryDx=0;entryDy=0;fontSize=13;fillColor=#f8cecc;strokeColor=#b85450;strokeWidth=2;" edge="1" parent="1" source="rq-qiGX2FJayqIBKI3bo-210" target="rq-qiGX2FJayqIBKI3bo-212">
          <mxGeometry relative="1" as="geometry" />
        </mxCell>
        <mxCell id="rq-qiGX2FJayqIBKI3bo-210" value="" style="ellipse;whiteSpace=wrap;html=1;aspect=fixed;fontSize=13;fillColor=#000000;strokeWidth=2;" vertex="1" parent="1">
          <mxGeometry x="331" y="890" width="10" height="10" as="geometry" />
        </mxCell>
        <mxCell id="rq-qiGX2FJayqIBKI3bo-211" style="edgeStyle=orthogonalEdgeStyle;curved=1;rounded=0;orthogonalLoop=1;jettySize=auto;html=1;entryX=0.5;entryY=1;entryDx=0;entryDy=0;fontSize=13;fillColor=#f8cecc;strokeColor=#b85450;strokeWidth=2;" edge="1" parent="1" source="rq-qiGX2FJayqIBKI3bo-212" target="rq-qiGX2FJayqIBKI3bo-214">
          <mxGeometry relative="1" as="geometry" />
        </mxCell>
        <mxCell id="rq-qiGX2FJayqIBKI3bo-212" value="" style="ellipse;whiteSpace=wrap;html=1;aspect=fixed;fontSize=13;fillColor=#000000;strokeWidth=2;" vertex="1" parent="1">
          <mxGeometry x="331" y="810" width="10" height="10" as="geometry" />
        </mxCell>
        <mxCell id="rq-qiGX2FJayqIBKI3bo-213" style="edgeStyle=orthogonalEdgeStyle;curved=1;rounded=0;orthogonalLoop=1;jettySize=auto;html=1;entryX=0.5;entryY=1;entryDx=0;entryDy=0;fontSize=13;fillColor=#f8cecc;strokeColor=#b85450;strokeWidth=2;" edge="1" parent="1" source="rq-qiGX2FJayqIBKI3bo-214" target="rq-qiGX2FJayqIBKI3bo-216">
          <mxGeometry relative="1" as="geometry" />
        </mxCell>
        <mxCell id="rq-qiGX2FJayqIBKI3bo-214" value="" style="ellipse;whiteSpace=wrap;html=1;aspect=fixed;fontSize=13;fillColor=#000000;strokeWidth=2;" vertex="1" parent="1">
          <mxGeometry x="331" y="730" width="10" height="10" as="geometry" />
        </mxCell>
        <mxCell id="rq-qiGX2FJayqIBKI3bo-215" style="edgeStyle=orthogonalEdgeStyle;curved=1;rounded=0;orthogonalLoop=1;jettySize=auto;html=1;entryX=0.5;entryY=1;entryDx=0;entryDy=0;fontSize=13;fillColor=#f8cecc;strokeColor=#b85450;strokeWidth=2;" edge="1" parent="1" source="rq-qiGX2FJayqIBKI3bo-216" target="rq-qiGX2FJayqIBKI3bo-217">
          <mxGeometry relative="1" as="geometry" />
        </mxCell>
        <mxCell id="rq-qiGX2FJayqIBKI3bo-216" value="" style="ellipse;whiteSpace=wrap;html=1;aspect=fixed;fontSize=13;fillColor=#000000;strokeWidth=2;" vertex="1" parent="1">
          <mxGeometry x="331" y="650" width="10" height="10" as="geometry" />
        </mxCell>
        <mxCell id="rq-qiGX2FJayqIBKI3bo-217" value="" style="ellipse;whiteSpace=wrap;html=1;aspect=fixed;fontSize=13;fillColor=#000000;strokeWidth=2;" vertex="1" parent="1">
          <mxGeometry x="331" y="570" width="10" height="10" as="geometry" />
        </mxCell>
        <mxCell id="rq-qiGX2FJayqIBKI3bo-218" style="edgeStyle=orthogonalEdgeStyle;curved=1;rounded=0;orthogonalLoop=1;jettySize=auto;html=1;entryX=0.5;entryY=1;entryDx=0;entryDy=0;fontSize=13;fillColor=#f8cecc;strokeColor=#b85450;strokeWidth=2;" edge="1" parent="1" source="rq-qiGX2FJayqIBKI3bo-219" target="rq-qiGX2FJayqIBKI3bo-221">
          <mxGeometry relative="1" as="geometry" />
        </mxCell>
        <mxCell id="rq-qiGX2FJayqIBKI3bo-219" value="" style="ellipse;whiteSpace=wrap;html=1;aspect=fixed;fontSize=13;fillColor=#000000;strokeWidth=2;" vertex="1" parent="1">
          <mxGeometry x="411" y="890" width="10" height="10" as="geometry" />
        </mxCell>
        <mxCell id="rq-qiGX2FJayqIBKI3bo-220" style="edgeStyle=orthogonalEdgeStyle;curved=1;rounded=0;orthogonalLoop=1;jettySize=auto;html=1;entryX=0.5;entryY=1;entryDx=0;entryDy=0;fontSize=13;fillColor=#f8cecc;strokeColor=#b85450;strokeWidth=2;" edge="1" parent="1" source="rq-qiGX2FJayqIBKI3bo-221" target="rq-qiGX2FJayqIBKI3bo-223">
          <mxGeometry relative="1" as="geometry" />
        </mxCell>
        <mxCell id="rq-qiGX2FJayqIBKI3bo-221" value="" style="ellipse;whiteSpace=wrap;html=1;aspect=fixed;fontSize=13;fillColor=#000000;strokeWidth=2;" vertex="1" parent="1">
          <mxGeometry x="411" y="810" width="10" height="10" as="geometry" />
        </mxCell>
        <mxCell id="rq-qiGX2FJayqIBKI3bo-222" style="edgeStyle=orthogonalEdgeStyle;curved=1;rounded=0;orthogonalLoop=1;jettySize=auto;html=1;entryX=0.5;entryY=1;entryDx=0;entryDy=0;fontSize=13;fillColor=#f8cecc;strokeColor=#b85450;strokeWidth=2;" edge="1" parent="1" source="rq-qiGX2FJayqIBKI3bo-223" target="rq-qiGX2FJayqIBKI3bo-225">
          <mxGeometry relative="1" as="geometry" />
        </mxCell>
        <mxCell id="rq-qiGX2FJayqIBKI3bo-223" value="" style="ellipse;whiteSpace=wrap;html=1;aspect=fixed;fontSize=13;fillColor=#000000;strokeWidth=2;" vertex="1" parent="1">
          <mxGeometry x="411" y="730" width="10" height="10" as="geometry" />
        </mxCell>
        <mxCell id="rq-qiGX2FJayqIBKI3bo-224" style="edgeStyle=orthogonalEdgeStyle;curved=1;rounded=0;orthogonalLoop=1;jettySize=auto;html=1;entryX=0.5;entryY=1;entryDx=0;entryDy=0;fontSize=13;fillColor=#f8cecc;strokeColor=#b85450;strokeWidth=2;" edge="1" parent="1" source="rq-qiGX2FJayqIBKI3bo-225" target="rq-qiGX2FJayqIBKI3bo-226">
          <mxGeometry relative="1" as="geometry" />
        </mxCell>
        <mxCell id="rq-qiGX2FJayqIBKI3bo-225" value="" style="ellipse;whiteSpace=wrap;html=1;aspect=fixed;fontSize=13;fillColor=#000000;strokeWidth=2;" vertex="1" parent="1">
          <mxGeometry x="411" y="650" width="10" height="10" as="geometry" />
        </mxCell>
        <mxCell id="rq-qiGX2FJayqIBKI3bo-226" value="" style="ellipse;whiteSpace=wrap;html=1;aspect=fixed;fontSize=13;fillColor=#000000;strokeWidth=2;" vertex="1" parent="1">
          <mxGeometry x="411" y="570" width="10" height="10" as="geometry" />
        </mxCell>
        <mxCell id="rq-qiGX2FJayqIBKI3bo-227" style="edgeStyle=orthogonalEdgeStyle;curved=1;rounded=0;orthogonalLoop=1;jettySize=auto;html=1;entryX=0.5;entryY=1;entryDx=0;entryDy=0;fontSize=13;fillColor=#f8cecc;strokeColor=#b85450;strokeWidth=2;" edge="1" parent="1" source="rq-qiGX2FJayqIBKI3bo-228" target="rq-qiGX2FJayqIBKI3bo-230">
          <mxGeometry relative="1" as="geometry" />
        </mxCell>
        <mxCell id="rq-qiGX2FJayqIBKI3bo-228" value="" style="ellipse;whiteSpace=wrap;html=1;aspect=fixed;fontSize=13;fillColor=#000000;strokeWidth=2;" vertex="1" parent="1">
          <mxGeometry x="491" y="890" width="10" height="10" as="geometry" />
        </mxCell>
        <mxCell id="rq-qiGX2FJayqIBKI3bo-229" style="edgeStyle=orthogonalEdgeStyle;curved=1;rounded=0;orthogonalLoop=1;jettySize=auto;html=1;entryX=0.5;entryY=1;entryDx=0;entryDy=0;fontSize=13;fillColor=#f8cecc;strokeColor=#b85450;strokeWidth=2;" edge="1" parent="1" source="rq-qiGX2FJayqIBKI3bo-230" target="rq-qiGX2FJayqIBKI3bo-232">
          <mxGeometry relative="1" as="geometry" />
        </mxCell>
        <mxCell id="rq-qiGX2FJayqIBKI3bo-230" value="" style="ellipse;whiteSpace=wrap;html=1;aspect=fixed;fontSize=13;fillColor=#000000;strokeWidth=2;" vertex="1" parent="1">
          <mxGeometry x="491" y="810" width="10" height="10" as="geometry" />
        </mxCell>
        <mxCell id="rq-qiGX2FJayqIBKI3bo-231" style="edgeStyle=orthogonalEdgeStyle;curved=1;rounded=0;orthogonalLoop=1;jettySize=auto;html=1;entryX=0.5;entryY=1;entryDx=0;entryDy=0;fontSize=13;fillColor=#f8cecc;strokeColor=#b85450;strokeWidth=2;" edge="1" parent="1" source="rq-qiGX2FJayqIBKI3bo-232" target="rq-qiGX2FJayqIBKI3bo-234">
          <mxGeometry relative="1" as="geometry" />
        </mxCell>
        <mxCell id="rq-qiGX2FJayqIBKI3bo-232" value="" style="ellipse;whiteSpace=wrap;html=1;aspect=fixed;fontSize=13;fillColor=#000000;strokeWidth=2;" vertex="1" parent="1">
          <mxGeometry x="491" y="730" width="10" height="10" as="geometry" />
        </mxCell>
        <mxCell id="rq-qiGX2FJayqIBKI3bo-233" style="edgeStyle=orthogonalEdgeStyle;curved=1;rounded=0;orthogonalLoop=1;jettySize=auto;html=1;entryX=0.5;entryY=1;entryDx=0;entryDy=0;fontSize=13;fillColor=#f8cecc;strokeColor=#b85450;strokeWidth=2;" edge="1" parent="1" source="rq-qiGX2FJayqIBKI3bo-234" target="rq-qiGX2FJayqIBKI3bo-235">
          <mxGeometry relative="1" as="geometry" />
        </mxCell>
        <mxCell id="rq-qiGX2FJayqIBKI3bo-234" value="" style="ellipse;whiteSpace=wrap;html=1;aspect=fixed;fontSize=13;fillColor=#000000;strokeWidth=2;" vertex="1" parent="1">
          <mxGeometry x="491" y="650" width="10" height="10" as="geometry" />
        </mxCell>
        <mxCell id="rq-qiGX2FJayqIBKI3bo-235" value="" style="ellipse;whiteSpace=wrap;html=1;aspect=fixed;fontSize=13;fillColor=#000000;strokeWidth=2;" vertex="1" parent="1">
          <mxGeometry x="491" y="570" width="10" height="10" as="geometry" />
        </mxCell>
        <mxCell id="rq-qiGX2FJayqIBKI3bo-272" style="edgeStyle=orthogonalEdgeStyle;curved=1;rounded=0;orthogonalLoop=1;jettySize=auto;html=1;entryX=0.5;entryY=1;entryDx=0;entryDy=0;fontSize=13;fillColor=#f8cecc;strokeColor=#b85450;strokeWidth=2;" edge="1" parent="1" source="rq-qiGX2FJayqIBKI3bo-273" target="rq-qiGX2FJayqIBKI3bo-275">
          <mxGeometry relative="1" as="geometry" />
        </mxCell>
        <mxCell id="rq-qiGX2FJayqIBKI3bo-273" value="" style="ellipse;whiteSpace=wrap;html=1;aspect=fixed;fontSize=13;fillColor=#000000;strokeWidth=2;" vertex="1" parent="1">
          <mxGeometry x="571" y="890" width="10" height="10" as="geometry" />
        </mxCell>
        <mxCell id="rq-qiGX2FJayqIBKI3bo-274" style="edgeStyle=orthogonalEdgeStyle;curved=1;rounded=0;orthogonalLoop=1;jettySize=auto;html=1;entryX=0.5;entryY=1;entryDx=0;entryDy=0;fontSize=13;fillColor=#f8cecc;strokeColor=#b85450;strokeWidth=2;" edge="1" parent="1" source="rq-qiGX2FJayqIBKI3bo-275" target="rq-qiGX2FJayqIBKI3bo-277">
          <mxGeometry relative="1" as="geometry" />
        </mxCell>
        <mxCell id="rq-qiGX2FJayqIBKI3bo-275" value="" style="ellipse;whiteSpace=wrap;html=1;aspect=fixed;fontSize=13;fillColor=#000000;strokeWidth=2;" vertex="1" parent="1">
          <mxGeometry x="571" y="810" width="10" height="10" as="geometry" />
        </mxCell>
        <mxCell id="rq-qiGX2FJayqIBKI3bo-276" style="edgeStyle=orthogonalEdgeStyle;curved=1;rounded=0;orthogonalLoop=1;jettySize=auto;html=1;entryX=0.5;entryY=1;entryDx=0;entryDy=0;fontSize=13;fillColor=#f8cecc;strokeColor=#b85450;strokeWidth=2;" edge="1" parent="1" source="rq-qiGX2FJayqIBKI3bo-277" target="rq-qiGX2FJayqIBKI3bo-279">
          <mxGeometry relative="1" as="geometry" />
        </mxCell>
        <mxCell id="rq-qiGX2FJayqIBKI3bo-277" value="" style="ellipse;whiteSpace=wrap;html=1;aspect=fixed;fontSize=13;fillColor=#000000;strokeWidth=2;" vertex="1" parent="1">
          <mxGeometry x="571" y="730" width="10" height="10" as="geometry" />
        </mxCell>
        <mxCell id="rq-qiGX2FJayqIBKI3bo-278" style="edgeStyle=orthogonalEdgeStyle;curved=1;rounded=0;orthogonalLoop=1;jettySize=auto;html=1;entryX=0.5;entryY=1;entryDx=0;entryDy=0;fontSize=13;fillColor=#f8cecc;strokeColor=#b85450;strokeWidth=2;" edge="1" parent="1" source="rq-qiGX2FJayqIBKI3bo-279" target="rq-qiGX2FJayqIBKI3bo-280">
          <mxGeometry relative="1" as="geometry" />
        </mxCell>
        <mxCell id="rq-qiGX2FJayqIBKI3bo-279" value="" style="ellipse;whiteSpace=wrap;html=1;aspect=fixed;fontSize=13;fillColor=#000000;strokeWidth=2;" vertex="1" parent="1">
          <mxGeometry x="571" y="650" width="10" height="10" as="geometry" />
        </mxCell>
        <mxCell id="rq-qiGX2FJayqIBKI3bo-280" value="" style="ellipse;whiteSpace=wrap;html=1;aspect=fixed;fontSize=13;fillColor=#000000;strokeWidth=2;" vertex="1" parent="1">
          <mxGeometry x="571" y="570" width="10" height="10" as="geometry" />
        </mxCell>
        <mxCell id="rq-qiGX2FJayqIBKI3bo-295" value="" style="curved=1;endArrow=classic;html=1;rounded=0;strokeColor=#000000;fontSize=13;entryX=0.5;entryY=0;entryDx=0;entryDy=0;strokeWidth=2;" edge="1" parent="1" source="rq-qiGX2FJayqIBKI3bo-158" target="rq-qiGX2FJayqIBKI3bo-223">
          <mxGeometry width="50" height="50" relative="1" as="geometry">
            <mxPoint x="261" y="625" as="sourcePoint" />
            <mxPoint x="331.71067811865476" y="575" as="targetPoint" />
            <Array as="points">
              <mxPoint x="361" y="630" />
            </Array>
          </mxGeometry>
        </mxCell>
        <mxCell id="rq-qiGX2FJayqIBKI3bo-297" value="" style="curved=1;endArrow=classic;html=1;rounded=0;strokeColor=#000000;fontSize=13;entryX=0.5;entryY=0;entryDx=0;entryDy=0;strokeWidth=2;" edge="1" parent="1">
          <mxGeometry width="50" height="50" relative="1" as="geometry">
            <mxPoint x="260.9980015393949" y="657.322240807327" as="sourcePoint" />
            <mxPoint x="416.57" y="809.9999999999999" as="targetPoint" />
            <Array as="points">
              <mxPoint x="361.57" y="710" />
            </Array>
          </mxGeometry>
        </mxCell>
        <mxCell id="rq-qiGX2FJayqIBKI3bo-298" value="" style="curved=1;endArrow=classic;html=1;rounded=0;strokeColor=#000000;fontSize=13;entryX=0.5;entryY=0;entryDx=0;entryDy=0;strokeWidth=2;" edge="1" parent="1">
          <mxGeometry width="50" height="50" relative="1" as="geometry">
            <mxPoint x="260.9980015393949" y="737.322240807327" as="sourcePoint" />
            <mxPoint x="416.57" y="889.9999999999999" as="targetPoint" />
            <Array as="points">
              <mxPoint x="361.57" y="790" />
            </Array>
          </mxGeometry>
        </mxCell>
        <mxCell id="rq-qiGX2FJayqIBKI3bo-299" value="" style="curved=1;endArrow=classic;html=1;rounded=0;strokeColor=#000000;fontSize=13;entryX=0.5;entryY=0;entryDx=0;entryDy=0;strokeWidth=2;" edge="1" parent="1">
          <mxGeometry width="50" height="50" relative="1" as="geometry">
            <mxPoint x="339.85800153939493" y="577.322240807327" as="sourcePoint" />
            <mxPoint x="495.43" y="729.9999999999999" as="targetPoint" />
            <Array as="points">
              <mxPoint x="440.43" y="630" />
            </Array>
          </mxGeometry>
        </mxCell>
        <mxCell id="rq-qiGX2FJayqIBKI3bo-300" value="" style="curved=1;endArrow=classic;html=1;rounded=0;strokeColor=#000000;fontSize=13;entryX=0.5;entryY=0;entryDx=0;entryDy=0;strokeWidth=2;" edge="1" parent="1">
          <mxGeometry width="50" height="50" relative="1" as="geometry">
            <mxPoint x="340.428001539395" y="657.322240807327" as="sourcePoint" />
            <mxPoint x="495.99999999999994" y="810" as="targetPoint" />
            <Array as="points">
              <mxPoint x="441" y="710" />
            </Array>
          </mxGeometry>
        </mxCell>
        <mxCell id="rq-qiGX2FJayqIBKI3bo-301" value="" style="curved=1;endArrow=classic;html=1;rounded=0;strokeColor=#000000;fontSize=13;entryX=0.5;entryY=0;entryDx=0;entryDy=0;strokeWidth=2;" edge="1" parent="1">
          <mxGeometry width="50" height="50" relative="1" as="geometry">
            <mxPoint x="340.9980015393949" y="737.322240807327" as="sourcePoint" />
            <mxPoint x="496.57" y="890" as="targetPoint" />
            <Array as="points">
              <mxPoint x="441.57" y="790" />
            </Array>
          </mxGeometry>
        </mxCell>
        <mxCell id="rq-qiGX2FJayqIBKI3bo-302" value="" style="curved=1;endArrow=classic;html=1;rounded=0;strokeColor=#000000;fontSize=13;entryX=0.5;entryY=0;entryDx=0;entryDy=0;strokeWidth=2;" edge="1" parent="1">
          <mxGeometry width="50" height="50" relative="1" as="geometry">
            <mxPoint x="420.998001539395" y="577.322240807327" as="sourcePoint" />
            <mxPoint x="576.57" y="729.9999999999999" as="targetPoint" />
            <Array as="points">
              <mxPoint x="521.5699999999999" y="630" />
            </Array>
          </mxGeometry>
        </mxCell>
        <mxCell id="rq-qiGX2FJayqIBKI3bo-303" value="" style="curved=1;endArrow=classic;html=1;rounded=0;strokeColor=#000000;fontSize=13;entryX=0.5;entryY=0;entryDx=0;entryDy=0;strokeWidth=2;" edge="1" parent="1">
          <mxGeometry width="50" height="50" relative="1" as="geometry">
            <mxPoint x="421.5680015393949" y="657.322240807327" as="sourcePoint" />
            <mxPoint x="577.14" y="810" as="targetPoint" />
            <Array as="points">
              <mxPoint x="522.14" y="710" />
            </Array>
          </mxGeometry>
        </mxCell>
        <mxCell id="rq-qiGX2FJayqIBKI3bo-304" value="" style="curved=1;endArrow=classic;html=1;rounded=0;strokeColor=#000000;fontSize=13;entryX=0.5;entryY=0;entryDx=0;entryDy=0;strokeWidth=2;" edge="1" parent="1">
          <mxGeometry width="50" height="50" relative="1" as="geometry">
            <mxPoint x="422.13800153939485" y="737.322240807327" as="sourcePoint" />
            <mxPoint x="577.7099999999999" y="890" as="targetPoint" />
            <Array as="points">
              <mxPoint x="522.71" y="790" />
            </Array>
          </mxGeometry>
        </mxCell>
        <mxCell id="rq-qiGX2FJayqIBKI3bo-305" value="" style="endArrow=classic;html=1;rounded=0;strokeColor=#000000;fontSize=13;curved=1;" edge="1" parent="1">
          <mxGeometry width="50" height="50" relative="1" as="geometry">
            <mxPoint x="175" y="974" as="sourcePoint" />
            <mxPoint x="175" y="501" as="targetPoint" />
          </mxGeometry>
        </mxCell>
        <mxCell id="rq-qiGX2FJayqIBKI3bo-306" value="" style="endArrow=classic;html=1;rounded=0;strokeColor=#000000;fontSize=13;curved=1;" edge="1" parent="1">
          <mxGeometry width="50" height="50" relative="1" as="geometry">
            <mxPoint x="175" y="974" as="sourcePoint" />
            <mxPoint x="655" y="975" as="targetPoint" />
          </mxGeometry>
        </mxCell>
        <mxCell id="rq-qiGX2FJayqIBKI3bo-307" value="&amp;nbsp; &amp;nbsp; 1&amp;nbsp; &amp;nbsp; &amp;nbsp; &amp;nbsp; &amp;nbsp; &amp;nbsp; 2&amp;nbsp; &amp;nbsp; &amp;nbsp; &amp;nbsp; &amp;nbsp; &amp;nbsp; &amp;nbsp;3&amp;nbsp; &amp;nbsp; &amp;nbsp; &amp;nbsp; &amp;nbsp; &amp;nbsp; 4&amp;nbsp; &amp;nbsp; &amp;nbsp; &amp;nbsp; &amp;nbsp; &amp;nbsp; 5" style="text;html=1;strokeColor=none;fillColor=none;align=left;verticalAlign=middle;whiteSpace=wrap;rounded=0;strokeWidth=2;fontSize=20;fontStyle=1" vertex="1" parent="1">
          <mxGeometry x="226" y="978" width="408" height="30" as="geometry" />
        </mxCell>
        <mxCell id="rq-qiGX2FJayqIBKI3bo-308" value="&lt;b&gt;i&lt;/b&gt;" style="text;html=1;strokeColor=none;fillColor=none;align=center;verticalAlign=middle;whiteSpace=wrap;rounded=0;strokeWidth=2;fontSize=20;" vertex="1" parent="1">
          <mxGeometry x="615" y="978" width="60" height="30" as="geometry" />
        </mxCell>
        <mxCell id="rq-qiGX2FJayqIBKI3bo-309" value="&lt;b&gt;1&lt;/b&gt;" style="text;html=1;strokeColor=none;fillColor=none;align=center;verticalAlign=middle;whiteSpace=wrap;rounded=0;strokeWidth=2;fontSize=20;" vertex="1" parent="1">
          <mxGeometry x="115" y="878" width="60" height="30" as="geometry" />
        </mxCell>
        <mxCell id="rq-qiGX2FJayqIBKI3bo-310" value="&lt;b&gt;2&lt;/b&gt;" style="text;html=1;strokeColor=none;fillColor=none;align=center;verticalAlign=middle;whiteSpace=wrap;rounded=0;strokeWidth=2;fontSize=20;" vertex="1" parent="1">
          <mxGeometry x="115" y="798" width="60" height="30" as="geometry" />
        </mxCell>
        <mxCell id="rq-qiGX2FJayqIBKI3bo-311" value="&lt;b&gt;3&lt;/b&gt;&lt;span style=&quot;color: rgba(0, 0, 0, 0); font-family: monospace; font-size: 0px; text-align: start;&quot;&gt;%3CmxGraphModel%3E%3Croot%3E%3CmxCell%20id%3D%220%22%2F%3E%3CmxCell%20id%3D%221%22%20parent%3D%220%22%2F%3E%3CmxCell%20id%3D%222%22%20value%3D%22%26lt%3Bb%26gt%3B2%26lt%3B%2Fb%26gt%3B%22%20style%3D%22text%3Bhtml%3D1%3BstrokeColor%3Dnone%3BfillColor%3Dnone%3Balign%3Dcenter%3BverticalAlign%3Dmiddle%3BwhiteSpace%3Dwrap%3Brounded%3D0%3BstrokeWidth%3D2%3BfontSize%3D20%3B%22%20vertex%3D%221%22%20parent%3D%221%22%3E%3CmxGeometry%20x%3D%22-60%22%20y%3D%22705%22%20width%3D%2260%22%20height%3D%2230%22%20as%3D%22geometry%22%2F%3E%3C%2FmxCell%3E%3C%2Froot%3E%3C%2FmxGraphModel%3E&lt;/span&gt;" style="text;html=1;strokeColor=none;fillColor=none;align=center;verticalAlign=middle;whiteSpace=wrap;rounded=0;strokeWidth=2;fontSize=20;" vertex="1" parent="1">
          <mxGeometry x="115" y="718" width="60" height="30" as="geometry" />
        </mxCell>
        <mxCell id="rq-qiGX2FJayqIBKI3bo-312" value="&lt;b&gt;4&lt;/b&gt;&lt;span style=&quot;color: rgba(0, 0, 0, 0); font-family: monospace; font-size: 0px; text-align: start;&quot;&gt;%3CmxGraphModel%3E%3Croot%3E%3CmxCell%20id%3D%220%22%2F%3E%3CmxCell%20id%3D%221%22%20parent%3D%220%22%2F%3E%3CmxCell%20id%3D%222%22%20value%3D%22%26lt%3Bb%26gt%3B3%26lt%3B%2Fb%26gt%3B%26lt%3Bspan%20style%3D%26quot%3Bcolor%3A%20rgba(0%2C%200%2C%200%2C%200)%3B%20font-family%3A%20monospace%3B%20font-size%3A%200px%3B%20text-align%3A%20start%3B%26quot%3B%26gt%3B%253CmxGraphModel%253E%253Croot%253E%253CmxCell%2520id%253D%25220%2522%252F%253E%253CmxCell%2520id%253D%25221%2522%2520parent%253D%25220%2522%252F%253E%253CmxCell%2520id%253D%25222%2522%2520value%253D%2522%2526lt%253Bb%2526gt%253B2%2526lt%253B%252Fb%2526gt%253B%2522%2520style%253D%2522text%253Bhtml%253D1%253BstrokeColor%253Dnone%253BfillColor%253Dnone%253Balign%253Dcenter%253BverticalAlign%253Dmiddle%253BwhiteSpace%253Dwrap%253Brounded%253D0%253BstrokeWidth%253D2%253BfontSize%253D20%253B%2522%2520vertex%253D%25221%2522%2520parent%253D%25221%2522%253E%253CmxGeometry%2520x%253D%2522-60%2522%2520y%253D%2522705%2522%2520width%253D%252260%2522%2520height%253D%252230%2522%2520as%253D%2522geometry%2522%252F%253E%253C%252FmxCell%253E%253C%252Froot%253E%253C%252FmxGraphModel%253E%26lt%3B%2Fspan%26gt%3B%22%20style%3D%22text%3Bhtml%3D1%3BstrokeColor%3Dnone%3BfillColor%3Dnone%3Balign%3Dcenter%3BverticalAlign%3Dmiddle%3BwhiteSpace%3Dwrap%3Brounded%3D0%3BstrokeWidth%3D2%3BfontSize%3D20%3B%22%20vertex%3D%221%22%20parent%3D%221%22%3E%3CmxGeometry%20x%3D%22-60%22%20y%3D%22625%22%20width%3D%2260%22%20height%3D%2230%22%20as%3D%22geometry%22%2F%3E%3C%2FmxCell%3E%3C%2Froot%3E%3C%2FmxGraphModel%3E&lt;/span&gt;&lt;span style=&quot;color: rgba(0, 0, 0, 0); font-family: monospace; font-size: 0px; text-align: start;&quot;&gt;%3CmxGraphModel%3E%3Croot%3E%3CmxCell%20id%3D%220%22%2F%3E%3CmxCell%20id%3D%221%22%20parent%3D%220%22%2F%3E%3CmxCell%20id%3D%222%22%20value%3D%22%26lt%3Bb%26gt%3B3%26lt%3B%2Fb%26gt%3B%26lt%3Bspan%20style%3D%26quot%3Bcolor%3A%20rgba(0%2C%200%2C%200%2C%200)%3B%20font-family%3A%20monospace%3B%20font-size%3A%200px%3B%20text-align%3A%20start%3B%26quot%3B%26gt%3B%253CmxGraphModel%253E%253Croot%253E%253CmxCell%2520id%253D%25220%2522%252F%253E%253CmxCell%2520id%253D%25221%2522%2520parent%253D%25220%2522%252F%253E%253CmxCell%2520id%253D%25222%2522%2520value%253D%2522%2526lt%253Bb%2526gt%253B2%2526lt%253B%252Fb%2526gt%253B%2522%2520style%253D%2522text%253Bhtml%253D1%253BstrokeColor%253Dnone%253BfillColor%253Dnone%253Balign%253Dcenter%253BverticalAlign%253Dmiddle%253BwhiteSpace%253Dwrap%253Brounded%253D0%253BstrokeWidth%253D2%253BfontSize%253D20%253B%2522%2520vertex%253D%25221%2522%2520parent%253D%25221%2522%253E%253CmxGeometry%2520x%253D%2522-60%2522%2520y%253D%2522705%2522%2520width%253D%252260%2522%2520height%253D%252230%2522%2520as%253D%2522geometry%2522%252F%253E%253C%252FmxCell%253E%253C%252Froot%253E%253C%252FmxGraphModel%253E%26lt%3B%2Fspan%26gt%3B%22%20style%3D%22text%3Bhtml%3D1%3BstrokeColor%3Dnone%3BfillColor%3Dnone%3Balign%3Dcenter%3BverticalAlign%3Dmiddle%3BwhiteSpace%3Dwrap%3Brounded%3D0%3BstrokeWidth%3D2%3BfontSize%3D20%3B%22%20vertex%3D%221%22%20parent%3D%221%22%3E%3CmxGeometry%20x%3D%22-60%22%20y%3D%22625%22%20width%3D%2260%22%20height%3D%2230%22%20as%3D%22geometry%22%2F%3E%3C%2FmxCell%3E%3C%2Froot%3E%3C%2FmxGraphModel%3E&lt;/span&gt;&lt;span style=&quot;color: rgba(0, 0, 0, 0); font-family: monospace; font-size: 0px; text-align: start;&quot;&gt;%3CmxGraphModel%3E%3Croot%3E%3CmxCell%20id%3D%220%22%2F%3E%3CmxCell%20id%3D%221%22%20parent%3D%220%22%2F%3E%3CmxCell%20id%3D%222%22%20value%3D%22%26lt%3Bb%26gt%3B3%26lt%3B%2Fb%26gt%3B%26lt%3Bspan%20style%3D%26quot%3Bcolor%3A%20rgba(0%2C%200%2C%200%2C%200)%3B%20font-family%3A%20monospace%3B%20font-size%3A%200px%3B%20text-align%3A%20start%3B%26quot%3B%26gt%3B%253CmxGraphModel%253E%253Croot%253E%253CmxCell%2520id%253D%25220%2522%252F%253E%253CmxCell%2520id%253D%25221%2522%2520parent%253D%25220%2522%252F%253E%253CmxCell%2520id%253D%25222%2522%2520value%253D%2522%2526lt%253Bb%2526gt%253B2%2526lt%253B%252Fb%2526gt%253B%2522%2520style%253D%2522text%253Bhtml%253D1%253BstrokeColor%253Dnone%253BfillColor%253Dnone%253Balign%253Dcenter%253BverticalAlign%253Dmiddle%253BwhiteSpace%253Dwrap%253Brounded%253D0%253BstrokeWidth%253D2%253BfontSize%253D20%253B%2522%2520vertex%253D%25221%2522%2520parent%253D%25221%2522%253E%253CmxGeometry%2520x%253D%2522-60%2522%2520y%253D%2522705%2522%2520width%253D%252260%2522%2520height%253D%252230%2522%2520as%253D%2522geometry%2522%252F%253E%253C%252FmxCell%253E%253C%252Froot%253E%253C%252FmxGraphModel%253E%26lt%3B%2Fspan%26gt%3B%22%20style%3D%22text%3Bhtml%3D1%3BstrokeColor%3Dnone%3BfillColor%3Dnone%3Balign%3Dcenter%3BverticalAlign%3Dmiddle%3BwhiteSpace%3Dwrap%3Brounded%3D0%3BstrokeWidth%3D2%3BfontSize%3D20%3B%22%20vertex%3D%221%22%20parent%3D%221%22%3E%3CmxGeometry%20x%3D%22-60%22%20y%3D%22625%22%20width%3D%2260%22%20height%3D%2230%22%20as%3D%22geometry%22%2F%3E%3C%2FmxCell%3E%3C%2Froot%3E%3C%2FmxGraphModel%3E&lt;/span&gt;&lt;span style=&quot;color: rgba(0, 0, 0, 0); font-family: monospace; font-size: 0px; text-align: start;&quot;&gt;%3CmxGraphModel%3E%3Croot%3E%3CmxCell%20id%3D%220%22%2F%3E%3CmxCell%20id%3D%221%22%20parent%3D%220%22%2F%3E%3CmxCell%20id%3D%222%22%20value%3D%22%26lt%3Bb%26gt%3B3%26lt%3B%2Fb%26gt%3B%26lt%3Bspan%20style%3D%26quot%3Bcolor%3A%20rgba(0%2C%200%2C%200%2C%200)%3B%20font-family%3A%20monospace%3B%20font-size%3A%200px%3B%20text-align%3A%20start%3B%26quot%3B%26gt%3B%253CmxGraphModel%253E%253Croot%253E%253CmxCell%2520id%253D%25220%2522%252F%253E%253CmxCell%2520id%253D%25221%2522%2520parent%253D%25220%2522%252F%253E%253CmxCell%2520id%253D%25222%2522%2520value%253D%2522%2526lt%253Bb%2526gt%253B2%2526lt%253B%252Fb%2526gt%253B%2522%2520style%253D%2522text%253Bhtml%253D1%253BstrokeColor%253Dnone%253BfillColor%253Dnone%253Balign%253Dcenter%253BverticalAlign%253Dmiddle%253BwhiteSpace%253Dwrap%253Brounded%253D0%253BstrokeWidth%253D2%253BfontSize%253D20%253B%2522%2520vertex%253D%25221%2522%2520parent%253D%25221%2522%253E%253CmxGeometry%2520x%253D%2522-60%2522%2520y%253D%2522705%2522%2520width%253D%252260%2522%2520height%253D%252230%2522%2520as%253D%2522geometry%2522%252F%253E%253C%252FmxCell%253E%253C%252Froot%253E%253C%252FmxGraphModel%253E%26lt%3B%2Fspan%26gt%3B%22%20style%3D%22text%3Bhtml%3D1%3BstrokeColor%3Dnone%3BfillColor%3Dnone%3Balign%3Dcenter%3BverticalAlign%3Dmiddle%3BwhiteSpace%3Dwrap%3Brounded%3D0%3BstrokeWidth%3D2%3BfontSize%3D20%3B%22%20vertex%3D%221%22%20parent%3D%221%22%3E%3CmxGeometry%20x%3D%22-60%22%20y%3D%22625%22%20width%3D%2260%22%20height%3D%2230%22%20as%3D%22geometry%22%2F%3E%3C%2FmxCell%3E%3C%2Froot%3E%3C%2FmxGraphModel%3E&lt;/span&gt;" style="text;html=1;strokeColor=none;fillColor=none;align=center;verticalAlign=middle;whiteSpace=wrap;rounded=0;strokeWidth=2;fontSize=20;" vertex="1" parent="1">
          <mxGeometry x="115" y="638" width="60" height="30" as="geometry" />
        </mxCell>
        <mxCell id="rq-qiGX2FJayqIBKI3bo-313" value="&lt;b&gt;5&lt;/b&gt;" style="text;html=1;strokeColor=none;fillColor=none;align=center;verticalAlign=middle;whiteSpace=wrap;rounded=0;strokeWidth=2;fontSize=20;" vertex="1" parent="1">
          <mxGeometry x="115" y="558" width="60" height="30" as="geometry" />
        </mxCell>
        <mxCell id="rq-qiGX2FJayqIBKI3bo-314" value="&lt;b&gt;j&lt;/b&gt;" style="text;html=1;strokeColor=none;fillColor=none;align=center;verticalAlign=middle;whiteSpace=wrap;rounded=0;strokeWidth=2;fontSize=20;" vertex="1" parent="1">
          <mxGeometry x="117" y="490" width="60" height="30" as="geometry" />
        </mxCell>
        <mxCell id="rq-qiGX2FJayqIBKI3bo-315" value="" style="endArrow=none;html=1;rounded=0;strokeColor=#000000;strokeWidth=1;fontSize=20;curved=1;" edge="1" parent="1">
          <mxGeometry width="50" height="50" relative="1" as="geometry">
            <mxPoint x="255" y="974" as="sourcePoint" />
            <mxPoint x="255" y="964" as="targetPoint" />
          </mxGeometry>
        </mxCell>
        <mxCell id="rq-qiGX2FJayqIBKI3bo-316" value="" style="endArrow=none;html=1;rounded=0;strokeColor=#000000;strokeWidth=1;fontSize=20;curved=1;" edge="1" parent="1">
          <mxGeometry width="50" height="50" relative="1" as="geometry">
            <mxPoint x="335" y="974" as="sourcePoint" />
            <mxPoint x="335" y="964" as="targetPoint" />
          </mxGeometry>
        </mxCell>
        <mxCell id="rq-qiGX2FJayqIBKI3bo-320" value="" style="endArrow=none;html=1;rounded=0;strokeColor=#000000;strokeWidth=1;fontSize=20;curved=1;" edge="1" parent="1">
          <mxGeometry width="50" height="50" relative="1" as="geometry">
            <mxPoint x="415" y="974" as="sourcePoint" />
            <mxPoint x="415" y="964" as="targetPoint" />
          </mxGeometry>
        </mxCell>
        <mxCell id="rq-qiGX2FJayqIBKI3bo-321" value="" style="endArrow=none;html=1;rounded=0;strokeColor=#000000;strokeWidth=1;fontSize=20;curved=1;" edge="1" parent="1">
          <mxGeometry width="50" height="50" relative="1" as="geometry">
            <mxPoint x="495" y="974" as="sourcePoint" />
            <mxPoint x="495" y="964" as="targetPoint" />
          </mxGeometry>
        </mxCell>
        <mxCell id="rq-qiGX2FJayqIBKI3bo-322" value="" style="endArrow=none;html=1;rounded=0;strokeColor=#000000;strokeWidth=1;fontSize=20;curved=1;" edge="1" parent="1">
          <mxGeometry width="50" height="50" relative="1" as="geometry">
            <mxPoint x="575" y="974" as="sourcePoint" />
            <mxPoint x="575" y="964" as="targetPoint" />
          </mxGeometry>
        </mxCell>
        <mxCell id="rq-qiGX2FJayqIBKI3bo-323" value="" style="endArrow=none;html=1;rounded=0;strokeColor=#000000;strokeWidth=1;fontSize=20;curved=1;exitX=1;exitY=0.5;exitDx=0;exitDy=0;" edge="1" parent="1">
          <mxGeometry width="50" height="50" relative="1" as="geometry">
            <mxPoint x="175" y="895" as="sourcePoint" />
            <mxPoint x="185" y="895" as="targetPoint" />
          </mxGeometry>
        </mxCell>
        <mxCell id="rq-qiGX2FJayqIBKI3bo-324" value="" style="endArrow=none;html=1;rounded=0;strokeColor=#000000;strokeWidth=1;fontSize=20;curved=1;exitX=1;exitY=0.5;exitDx=0;exitDy=0;" edge="1" parent="1">
          <mxGeometry width="50" height="50" relative="1" as="geometry">
            <mxPoint x="175" y="815" as="sourcePoint" />
            <mxPoint x="185" y="815" as="targetPoint" />
          </mxGeometry>
        </mxCell>
        <mxCell id="rq-qiGX2FJayqIBKI3bo-325" value="" style="endArrow=none;html=1;rounded=0;strokeColor=#000000;strokeWidth=1;fontSize=20;curved=1;exitX=1;exitY=0.5;exitDx=0;exitDy=0;" edge="1" parent="1">
          <mxGeometry width="50" height="50" relative="1" as="geometry">
            <mxPoint x="175" y="735" as="sourcePoint" />
            <mxPoint x="185" y="735" as="targetPoint" />
          </mxGeometry>
        </mxCell>
        <mxCell id="rq-qiGX2FJayqIBKI3bo-326" value="" style="endArrow=none;html=1;rounded=0;strokeColor=#000000;strokeWidth=1;fontSize=20;curved=1;exitX=1;exitY=0.5;exitDx=0;exitDy=0;" edge="1" parent="1">
          <mxGeometry width="50" height="50" relative="1" as="geometry">
            <mxPoint x="175" y="655" as="sourcePoint" />
            <mxPoint x="185" y="655" as="targetPoint" />
          </mxGeometry>
        </mxCell>
        <mxCell id="rq-qiGX2FJayqIBKI3bo-327" value="" style="endArrow=none;html=1;rounded=0;strokeColor=#000000;strokeWidth=1;fontSize=20;curved=1;" edge="1" parent="1">
          <mxGeometry width="50" height="50" relative="1" as="geometry">
            <mxPoint x="175" y="575" as="sourcePoint" />
            <mxPoint x="185" y="575" as="targetPoint" />
          </mxGeometry>
        </mxCell>
        <mxCell id="rq-qiGX2FJayqIBKI3bo-331" value="" style="ellipse;whiteSpace=wrap;html=1;aspect=fixed;fontSize=13;fillColor=#000000;strokeWidth=2;" vertex="1" parent="1">
          <mxGeometry x="211" y="1480" width="10" height="10" as="geometry" />
        </mxCell>
        <mxCell id="rq-qiGX2FJayqIBKI3bo-333" value="" style="ellipse;whiteSpace=wrap;html=1;aspect=fixed;fontSize=13;fillColor=#000000;strokeWidth=2;" vertex="1" parent="1">
          <mxGeometry x="211" y="1400" width="10" height="10" as="geometry" />
        </mxCell>
        <mxCell id="rq-qiGX2FJayqIBKI3bo-335" value="" style="ellipse;whiteSpace=wrap;html=1;aspect=fixed;fontSize=13;fillColor=#000000;strokeWidth=2;" vertex="1" parent="1">
          <mxGeometry x="211" y="1320" width="10" height="10" as="geometry" />
        </mxCell>
        <mxCell id="rq-qiGX2FJayqIBKI3bo-336" value="" style="ellipse;whiteSpace=wrap;html=1;aspect=fixed;fontSize=13;fillColor=#000000;strokeWidth=2;" vertex="1" parent="1">
          <mxGeometry x="211" y="1240" width="10" height="10" as="geometry" />
        </mxCell>
        <mxCell id="rq-qiGX2FJayqIBKI3bo-342" value="" style="ellipse;whiteSpace=wrap;html=1;aspect=fixed;fontSize=13;fillColor=#000000;strokeWidth=2;" vertex="1" parent="1">
          <mxGeometry x="291" y="1400" width="10" height="10" as="geometry" />
        </mxCell>
        <mxCell id="rq-qiGX2FJayqIBKI3bo-344" value="" style="ellipse;whiteSpace=wrap;html=1;aspect=fixed;fontSize=13;fillColor=#000000;strokeWidth=2;" vertex="1" parent="1">
          <mxGeometry x="291" y="1320" width="10" height="10" as="geometry" />
        </mxCell>
        <mxCell id="rq-qiGX2FJayqIBKI3bo-345" value="" style="ellipse;whiteSpace=wrap;html=1;aspect=fixed;fontSize=13;fillColor=#000000;strokeWidth=2;" vertex="1" parent="1">
          <mxGeometry x="291" y="1240" width="10" height="10" as="geometry" />
        </mxCell>
        <mxCell id="rq-qiGX2FJayqIBKI3bo-353" value="" style="ellipse;whiteSpace=wrap;html=1;aspect=fixed;fontSize=13;fillColor=#000000;strokeWidth=2;" vertex="1" parent="1">
          <mxGeometry x="371" y="1320" width="10" height="10" as="geometry" />
        </mxCell>
        <mxCell id="rq-qiGX2FJayqIBKI3bo-354" value="" style="ellipse;whiteSpace=wrap;html=1;aspect=fixed;fontSize=13;fillColor=#000000;strokeWidth=2;" vertex="1" parent="1">
          <mxGeometry x="371" y="1240" width="10" height="10" as="geometry" />
        </mxCell>
        <mxCell id="rq-qiGX2FJayqIBKI3bo-363" value="" style="ellipse;whiteSpace=wrap;html=1;aspect=fixed;fontSize=13;fillColor=#000000;strokeWidth=2;" vertex="1" parent="1">
          <mxGeometry x="451" y="1240" width="10" height="10" as="geometry" />
        </mxCell>
        <mxCell id="rq-qiGX2FJayqIBKI3bo-382" value="" style="endArrow=classic;html=1;rounded=0;strokeColor=#000000;fontSize=13;curved=1;" edge="1" parent="1">
          <mxGeometry width="50" height="50" relative="1" as="geometry">
            <mxPoint x="135" y="1644" as="sourcePoint" />
            <mxPoint x="135" y="1171" as="targetPoint" />
          </mxGeometry>
        </mxCell>
        <mxCell id="rq-qiGX2FJayqIBKI3bo-383" value="" style="endArrow=classic;html=1;rounded=0;strokeColor=#000000;fontSize=13;curved=1;" edge="1" parent="1">
          <mxGeometry width="50" height="50" relative="1" as="geometry">
            <mxPoint x="135" y="1644" as="sourcePoint" />
            <mxPoint x="615" y="1645" as="targetPoint" />
          </mxGeometry>
        </mxCell>
        <mxCell id="rq-qiGX2FJayqIBKI3bo-384" value="&amp;nbsp; &amp;nbsp; 1&amp;nbsp; &amp;nbsp; &amp;nbsp; &amp;nbsp; &amp;nbsp; &amp;nbsp; 2&amp;nbsp; &amp;nbsp; &amp;nbsp; &amp;nbsp; &amp;nbsp; &amp;nbsp; &amp;nbsp;3&amp;nbsp; &amp;nbsp; &amp;nbsp; &amp;nbsp; &amp;nbsp; &amp;nbsp; 4&amp;nbsp; &amp;nbsp; &amp;nbsp; &amp;nbsp; &amp;nbsp; &amp;nbsp; 5" style="text;html=1;strokeColor=none;fillColor=none;align=left;verticalAlign=middle;whiteSpace=wrap;rounded=0;strokeWidth=2;fontSize=20;fontStyle=1" vertex="1" parent="1">
          <mxGeometry x="186" y="1648" width="408" height="30" as="geometry" />
        </mxCell>
        <mxCell id="rq-qiGX2FJayqIBKI3bo-385" value="&lt;b&gt;i&lt;/b&gt;" style="text;html=1;strokeColor=none;fillColor=none;align=center;verticalAlign=middle;whiteSpace=wrap;rounded=0;strokeWidth=2;fontSize=20;" vertex="1" parent="1">
          <mxGeometry x="575" y="1648" width="60" height="30" as="geometry" />
        </mxCell>
        <mxCell id="rq-qiGX2FJayqIBKI3bo-386" value="&lt;b&gt;1&lt;/b&gt;" style="text;html=1;strokeColor=none;fillColor=none;align=center;verticalAlign=middle;whiteSpace=wrap;rounded=0;strokeWidth=2;fontSize=20;" vertex="1" parent="1">
          <mxGeometry x="75" y="1548" width="60" height="30" as="geometry" />
        </mxCell>
        <mxCell id="rq-qiGX2FJayqIBKI3bo-387" value="&lt;b&gt;2&lt;/b&gt;" style="text;html=1;strokeColor=none;fillColor=none;align=center;verticalAlign=middle;whiteSpace=wrap;rounded=0;strokeWidth=2;fontSize=20;" vertex="1" parent="1">
          <mxGeometry x="75" y="1468" width="60" height="30" as="geometry" />
        </mxCell>
        <mxCell id="rq-qiGX2FJayqIBKI3bo-388" value="&lt;b&gt;3&lt;/b&gt;&lt;span style=&quot;color: rgba(0, 0, 0, 0); font-family: monospace; font-size: 0px; text-align: start;&quot;&gt;%3CmxGraphModel%3E%3Croot%3E%3CmxCell%20id%3D%220%22%2F%3E%3CmxCell%20id%3D%221%22%20parent%3D%220%22%2F%3E%3CmxCell%20id%3D%222%22%20value%3D%22%26lt%3Bb%26gt%3B2%26lt%3B%2Fb%26gt%3B%22%20style%3D%22text%3Bhtml%3D1%3BstrokeColor%3Dnone%3BfillColor%3Dnone%3Balign%3Dcenter%3BverticalAlign%3Dmiddle%3BwhiteSpace%3Dwrap%3Brounded%3D0%3BstrokeWidth%3D2%3BfontSize%3D20%3B%22%20vertex%3D%221%22%20parent%3D%221%22%3E%3CmxGeometry%20x%3D%22-60%22%20y%3D%22705%22%20width%3D%2260%22%20height%3D%2230%22%20as%3D%22geometry%22%2F%3E%3C%2FmxCell%3E%3C%2Froot%3E%3C%2FmxGraphModel%3E&lt;/span&gt;" style="text;html=1;strokeColor=none;fillColor=none;align=center;verticalAlign=middle;whiteSpace=wrap;rounded=0;strokeWidth=2;fontSize=20;" vertex="1" parent="1">
          <mxGeometry x="75" y="1388" width="60" height="30" as="geometry" />
        </mxCell>
        <mxCell id="rq-qiGX2FJayqIBKI3bo-389" value="&lt;b&gt;4&lt;/b&gt;&lt;span style=&quot;color: rgba(0, 0, 0, 0); font-family: monospace; font-size: 0px; text-align: start;&quot;&gt;%3CmxGraphModel%3E%3Croot%3E%3CmxCell%20id%3D%220%22%2F%3E%3CmxCell%20id%3D%221%22%20parent%3D%220%22%2F%3E%3CmxCell%20id%3D%222%22%20value%3D%22%26lt%3Bb%26gt%3B3%26lt%3B%2Fb%26gt%3B%26lt%3Bspan%20style%3D%26quot%3Bcolor%3A%20rgba(0%2C%200%2C%200%2C%200)%3B%20font-family%3A%20monospace%3B%20font-size%3A%200px%3B%20text-align%3A%20start%3B%26quot%3B%26gt%3B%253CmxGraphModel%253E%253Croot%253E%253CmxCell%2520id%253D%25220%2522%252F%253E%253CmxCell%2520id%253D%25221%2522%2520parent%253D%25220%2522%252F%253E%253CmxCell%2520id%253D%25222%2522%2520value%253D%2522%2526lt%253Bb%2526gt%253B2%2526lt%253B%252Fb%2526gt%253B%2522%2520style%253D%2522text%253Bhtml%253D1%253BstrokeColor%253Dnone%253BfillColor%253Dnone%253Balign%253Dcenter%253BverticalAlign%253Dmiddle%253BwhiteSpace%253Dwrap%253Brounded%253D0%253BstrokeWidth%253D2%253BfontSize%253D20%253B%2522%2520vertex%253D%25221%2522%2520parent%253D%25221%2522%253E%253CmxGeometry%2520x%253D%2522-60%2522%2520y%253D%2522705%2522%2520width%253D%252260%2522%2520height%253D%252230%2522%2520as%253D%2522geometry%2522%252F%253E%253C%252FmxCell%253E%253C%252Froot%253E%253C%252FmxGraphModel%253E%26lt%3B%2Fspan%26gt%3B%22%20style%3D%22text%3Bhtml%3D1%3BstrokeColor%3Dnone%3BfillColor%3Dnone%3Balign%3Dcenter%3BverticalAlign%3Dmiddle%3BwhiteSpace%3Dwrap%3Brounded%3D0%3BstrokeWidth%3D2%3BfontSize%3D20%3B%22%20vertex%3D%221%22%20parent%3D%221%22%3E%3CmxGeometry%20x%3D%22-60%22%20y%3D%22625%22%20width%3D%2260%22%20height%3D%2230%22%20as%3D%22geometry%22%2F%3E%3C%2FmxCell%3E%3C%2Froot%3E%3C%2FmxGraphModel%3E&lt;/span&gt;&lt;span style=&quot;color: rgba(0, 0, 0, 0); font-family: monospace; font-size: 0px; text-align: start;&quot;&gt;%3CmxGraphModel%3E%3Croot%3E%3CmxCell%20id%3D%220%22%2F%3E%3CmxCell%20id%3D%221%22%20parent%3D%220%22%2F%3E%3CmxCell%20id%3D%222%22%20value%3D%22%26lt%3Bb%26gt%3B3%26lt%3B%2Fb%26gt%3B%26lt%3Bspan%20style%3D%26quot%3Bcolor%3A%20rgba(0%2C%200%2C%200%2C%200)%3B%20font-family%3A%20monospace%3B%20font-size%3A%200px%3B%20text-align%3A%20start%3B%26quot%3B%26gt%3B%253CmxGraphModel%253E%253Croot%253E%253CmxCell%2520id%253D%25220%2522%252F%253E%253CmxCell%2520id%253D%25221%2522%2520parent%253D%25220%2522%252F%253E%253CmxCell%2520id%253D%25222%2522%2520value%253D%2522%2526lt%253Bb%2526gt%253B2%2526lt%253B%252Fb%2526gt%253B%2522%2520style%253D%2522text%253Bhtml%253D1%253BstrokeColor%253Dnone%253BfillColor%253Dnone%253Balign%253Dcenter%253BverticalAlign%253Dmiddle%253BwhiteSpace%253Dwrap%253Brounded%253D0%253BstrokeWidth%253D2%253BfontSize%253D20%253B%2522%2520vertex%253D%25221%2522%2520parent%253D%25221%2522%253E%253CmxGeometry%2520x%253D%2522-60%2522%2520y%253D%2522705%2522%2520width%253D%252260%2522%2520height%253D%252230%2522%2520as%253D%2522geometry%2522%252F%253E%253C%252FmxCell%253E%253C%252Froot%253E%253C%252FmxGraphModel%253E%26lt%3B%2Fspan%26gt%3B%22%20style%3D%22text%3Bhtml%3D1%3BstrokeColor%3Dnone%3BfillColor%3Dnone%3Balign%3Dcenter%3BverticalAlign%3Dmiddle%3BwhiteSpace%3Dwrap%3Brounded%3D0%3BstrokeWidth%3D2%3BfontSize%3D20%3B%22%20vertex%3D%221%22%20parent%3D%221%22%3E%3CmxGeometry%20x%3D%22-60%22%20y%3D%22625%22%20width%3D%2260%22%20height%3D%2230%22%20as%3D%22geometry%22%2F%3E%3C%2FmxCell%3E%3C%2Froot%3E%3C%2FmxGraphModel%3E&lt;/span&gt;&lt;span style=&quot;color: rgba(0, 0, 0, 0); font-family: monospace; font-size: 0px; text-align: start;&quot;&gt;%3CmxGraphModel%3E%3Croot%3E%3CmxCell%20id%3D%220%22%2F%3E%3CmxCell%20id%3D%221%22%20parent%3D%220%22%2F%3E%3CmxCell%20id%3D%222%22%20value%3D%22%26lt%3Bb%26gt%3B3%26lt%3B%2Fb%26gt%3B%26lt%3Bspan%20style%3D%26quot%3Bcolor%3A%20rgba(0%2C%200%2C%200%2C%200)%3B%20font-family%3A%20monospace%3B%20font-size%3A%200px%3B%20text-align%3A%20start%3B%26quot%3B%26gt%3B%253CmxGraphModel%253E%253Croot%253E%253CmxCell%2520id%253D%25220%2522%252F%253E%253CmxCell%2520id%253D%25221%2522%2520parent%253D%25220%2522%252F%253E%253CmxCell%2520id%253D%25222%2522%2520value%253D%2522%2526lt%253Bb%2526gt%253B2%2526lt%253B%252Fb%2526gt%253B%2522%2520style%253D%2522text%253Bhtml%253D1%253BstrokeColor%253Dnone%253BfillColor%253Dnone%253Balign%253Dcenter%253BverticalAlign%253Dmiddle%253BwhiteSpace%253Dwrap%253Brounded%253D0%253BstrokeWidth%253D2%253BfontSize%253D20%253B%2522%2520vertex%253D%25221%2522%2520parent%253D%25221%2522%253E%253CmxGeometry%2520x%253D%2522-60%2522%2520y%253D%2522705%2522%2520width%253D%252260%2522%2520height%253D%252230%2522%2520as%253D%2522geometry%2522%252F%253E%253C%252FmxCell%253E%253C%252Froot%253E%253C%252FmxGraphModel%253E%26lt%3B%2Fspan%26gt%3B%22%20style%3D%22text%3Bhtml%3D1%3BstrokeColor%3Dnone%3BfillColor%3Dnone%3Balign%3Dcenter%3BverticalAlign%3Dmiddle%3BwhiteSpace%3Dwrap%3Brounded%3D0%3BstrokeWidth%3D2%3BfontSize%3D20%3B%22%20vertex%3D%221%22%20parent%3D%221%22%3E%3CmxGeometry%20x%3D%22-60%22%20y%3D%22625%22%20width%3D%2260%22%20height%3D%2230%22%20as%3D%22geometry%22%2F%3E%3C%2FmxCell%3E%3C%2Froot%3E%3C%2FmxGraphModel%3E&lt;/span&gt;&lt;span style=&quot;color: rgba(0, 0, 0, 0); font-family: monospace; font-size: 0px; text-align: start;&quot;&gt;%3CmxGraphModel%3E%3Croot%3E%3CmxCell%20id%3D%220%22%2F%3E%3CmxCell%20id%3D%221%22%20parent%3D%220%22%2F%3E%3CmxCell%20id%3D%222%22%20value%3D%22%26lt%3Bb%26gt%3B3%26lt%3B%2Fb%26gt%3B%26lt%3Bspan%20style%3D%26quot%3Bcolor%3A%20rgba(0%2C%200%2C%200%2C%200)%3B%20font-family%3A%20monospace%3B%20font-size%3A%200px%3B%20text-align%3A%20start%3B%26quot%3B%26gt%3B%253CmxGraphModel%253E%253Croot%253E%253CmxCell%2520id%253D%25220%2522%252F%253E%253CmxCell%2520id%253D%25221%2522%2520parent%253D%25220%2522%252F%253E%253CmxCell%2520id%253D%25222%2522%2520value%253D%2522%2526lt%253Bb%2526gt%253B2%2526lt%253B%252Fb%2526gt%253B%2522%2520style%253D%2522text%253Bhtml%253D1%253BstrokeColor%253Dnone%253BfillColor%253Dnone%253Balign%253Dcenter%253BverticalAlign%253Dmiddle%253BwhiteSpace%253Dwrap%253Brounded%253D0%253BstrokeWidth%253D2%253BfontSize%253D20%253B%2522%2520vertex%253D%25221%2522%2520parent%253D%25221%2522%253E%253CmxGeometry%2520x%253D%2522-60%2522%2520y%253D%2522705%2522%2520width%253D%252260%2522%2520height%253D%252230%2522%2520as%253D%2522geometry%2522%252F%253E%253C%252FmxCell%253E%253C%252Froot%253E%253C%252FmxGraphModel%253E%26lt%3B%2Fspan%26gt%3B%22%20style%3D%22text%3Bhtml%3D1%3BstrokeColor%3Dnone%3BfillColor%3Dnone%3Balign%3Dcenter%3BverticalAlign%3Dmiddle%3BwhiteSpace%3Dwrap%3Brounded%3D0%3BstrokeWidth%3D2%3BfontSize%3D20%3B%22%20vertex%3D%221%22%20parent%3D%221%22%3E%3CmxGeometry%20x%3D%22-60%22%20y%3D%22625%22%20width%3D%2260%22%20height%3D%2230%22%20as%3D%22geometry%22%2F%3E%3C%2FmxCell%3E%3C%2Froot%3E%3C%2FmxGraphModel%3E&lt;/span&gt;" style="text;html=1;strokeColor=none;fillColor=none;align=center;verticalAlign=middle;whiteSpace=wrap;rounded=0;strokeWidth=2;fontSize=20;" vertex="1" parent="1">
          <mxGeometry x="75" y="1308" width="60" height="30" as="geometry" />
        </mxCell>
        <mxCell id="rq-qiGX2FJayqIBKI3bo-390" value="&lt;b&gt;5&lt;/b&gt;" style="text;html=1;strokeColor=none;fillColor=none;align=center;verticalAlign=middle;whiteSpace=wrap;rounded=0;strokeWidth=2;fontSize=20;" vertex="1" parent="1">
          <mxGeometry x="75" y="1228" width="60" height="30" as="geometry" />
        </mxCell>
        <mxCell id="rq-qiGX2FJayqIBKI3bo-391" value="&lt;b&gt;j&lt;/b&gt;" style="text;html=1;strokeColor=none;fillColor=none;align=center;verticalAlign=middle;whiteSpace=wrap;rounded=0;strokeWidth=2;fontSize=20;" vertex="1" parent="1">
          <mxGeometry x="77" y="1160" width="60" height="30" as="geometry" />
        </mxCell>
        <mxCell id="rq-qiGX2FJayqIBKI3bo-392" value="" style="endArrow=none;html=1;rounded=0;strokeColor=#000000;strokeWidth=1;fontSize=20;curved=1;" edge="1" parent="1">
          <mxGeometry width="50" height="50" relative="1" as="geometry">
            <mxPoint x="215" y="1644" as="sourcePoint" />
            <mxPoint x="215" y="1633.9999999999998" as="targetPoint" />
          </mxGeometry>
        </mxCell>
        <mxCell id="rq-qiGX2FJayqIBKI3bo-393" value="" style="endArrow=none;html=1;rounded=0;strokeColor=#000000;strokeWidth=1;fontSize=20;curved=1;" edge="1" parent="1">
          <mxGeometry width="50" height="50" relative="1" as="geometry">
            <mxPoint x="295" y="1644" as="sourcePoint" />
            <mxPoint x="295" y="1633.9999999999998" as="targetPoint" />
          </mxGeometry>
        </mxCell>
        <mxCell id="rq-qiGX2FJayqIBKI3bo-394" value="" style="endArrow=none;html=1;rounded=0;strokeColor=#000000;strokeWidth=1;fontSize=20;curved=1;" edge="1" parent="1">
          <mxGeometry width="50" height="50" relative="1" as="geometry">
            <mxPoint x="375" y="1644" as="sourcePoint" />
            <mxPoint x="375" y="1633.9999999999998" as="targetPoint" />
          </mxGeometry>
        </mxCell>
        <mxCell id="rq-qiGX2FJayqIBKI3bo-395" value="" style="endArrow=none;html=1;rounded=0;strokeColor=#000000;strokeWidth=1;fontSize=20;curved=1;" edge="1" parent="1">
          <mxGeometry width="50" height="50" relative="1" as="geometry">
            <mxPoint x="455" y="1644" as="sourcePoint" />
            <mxPoint x="455" y="1633.9999999999998" as="targetPoint" />
          </mxGeometry>
        </mxCell>
        <mxCell id="rq-qiGX2FJayqIBKI3bo-396" value="" style="endArrow=none;html=1;rounded=0;strokeColor=#000000;strokeWidth=1;fontSize=20;curved=1;" edge="1" parent="1">
          <mxGeometry width="50" height="50" relative="1" as="geometry">
            <mxPoint x="535" y="1644" as="sourcePoint" />
            <mxPoint x="535" y="1633.9999999999998" as="targetPoint" />
          </mxGeometry>
        </mxCell>
        <mxCell id="rq-qiGX2FJayqIBKI3bo-397" value="" style="endArrow=none;html=1;rounded=0;strokeColor=#000000;strokeWidth=1;fontSize=20;curved=1;exitX=1;exitY=0.5;exitDx=0;exitDy=0;" edge="1" parent="1">
          <mxGeometry width="50" height="50" relative="1" as="geometry">
            <mxPoint x="135" y="1565" as="sourcePoint" />
            <mxPoint x="145" y="1565" as="targetPoint" />
          </mxGeometry>
        </mxCell>
        <mxCell id="rq-qiGX2FJayqIBKI3bo-398" value="" style="endArrow=none;html=1;rounded=0;strokeColor=#000000;strokeWidth=1;fontSize=20;curved=1;exitX=1;exitY=0.5;exitDx=0;exitDy=0;" edge="1" parent="1">
          <mxGeometry width="50" height="50" relative="1" as="geometry">
            <mxPoint x="135" y="1485" as="sourcePoint" />
            <mxPoint x="145" y="1485" as="targetPoint" />
          </mxGeometry>
        </mxCell>
        <mxCell id="rq-qiGX2FJayqIBKI3bo-399" value="" style="endArrow=none;html=1;rounded=0;strokeColor=#000000;strokeWidth=1;fontSize=20;curved=1;exitX=1;exitY=0.5;exitDx=0;exitDy=0;" edge="1" parent="1">
          <mxGeometry width="50" height="50" relative="1" as="geometry">
            <mxPoint x="135" y="1405" as="sourcePoint" />
            <mxPoint x="145" y="1405" as="targetPoint" />
          </mxGeometry>
        </mxCell>
        <mxCell id="rq-qiGX2FJayqIBKI3bo-400" value="" style="endArrow=none;html=1;rounded=0;strokeColor=#000000;strokeWidth=1;fontSize=20;curved=1;exitX=1;exitY=0.5;exitDx=0;exitDy=0;" edge="1" parent="1">
          <mxGeometry width="50" height="50" relative="1" as="geometry">
            <mxPoint x="135" y="1325" as="sourcePoint" />
            <mxPoint x="145" y="1325" as="targetPoint" />
          </mxGeometry>
        </mxCell>
        <mxCell id="rq-qiGX2FJayqIBKI3bo-401" value="" style="endArrow=none;html=1;rounded=0;strokeColor=#000000;strokeWidth=1;fontSize=20;curved=1;" edge="1" parent="1">
          <mxGeometry width="50" height="50" relative="1" as="geometry">
            <mxPoint x="135" y="1245" as="sourcePoint" />
            <mxPoint x="145" y="1245" as="targetPoint" />
          </mxGeometry>
        </mxCell>
        <mxCell id="rq-qiGX2FJayqIBKI3bo-406" value="" style="ellipse;whiteSpace=wrap;html=1;aspect=fixed;strokeWidth=2;fontSize=20;fillColor=#000000;" vertex="1" parent="1">
          <mxGeometry x="530" y="1640" width="10" height="10" as="geometry" />
        </mxCell>
        <mxCell id="rq-qiGX2FJayqIBKI3bo-408" value="" style="ellipse;whiteSpace=wrap;html=1;aspect=fixed;strokeWidth=2;fontSize=20;fillColor=#000000;" vertex="1" parent="1">
          <mxGeometry x="451" y="1640" width="10" height="10" as="geometry" />
        </mxCell>
        <mxCell id="rq-qiGX2FJayqIBKI3bo-410" value="" style="endArrow=none;html=1;rounded=0;strokeColor=#000000;strokeWidth=1;fontSize=20;curved=1;" edge="1" parent="1">
          <mxGeometry width="50" height="50" relative="1" as="geometry">
            <mxPoint x="295" y="1646" as="sourcePoint" />
            <mxPoint x="295" y="1636" as="targetPoint" />
          </mxGeometry>
        </mxCell>
        <mxCell id="rq-qiGX2FJayqIBKI3bo-411" value="" style="endArrow=none;html=1;rounded=0;strokeColor=#000000;strokeWidth=1;fontSize=20;curved=1;" edge="1" parent="1">
          <mxGeometry width="50" height="50" relative="1" as="geometry">
            <mxPoint x="375" y="1646" as="sourcePoint" />
            <mxPoint x="375" y="1636" as="targetPoint" />
          </mxGeometry>
        </mxCell>
        <mxCell id="rq-qiGX2FJayqIBKI3bo-412" value="" style="ellipse;whiteSpace=wrap;html=1;aspect=fixed;strokeWidth=2;fontSize=20;fillColor=#000000;" vertex="1" parent="1">
          <mxGeometry x="370" y="1641" width="10" height="10" as="geometry" />
        </mxCell>
        <mxCell id="rq-qiGX2FJayqIBKI3bo-413" value="" style="ellipse;whiteSpace=wrap;html=1;aspect=fixed;strokeWidth=2;fontSize=20;fillColor=#000000;" vertex="1" parent="1">
          <mxGeometry x="291" y="1641" width="10" height="10" as="geometry" />
        </mxCell>
      </root>
    </mxGraphModel>
  </diagram>
</mxfile>
